<svg width="26" height="26" viewBox="0 0 26 26" fill="none" xmlns="http://www.w3.org/2000/svg">
<g clip-path="url(#clip0)">
<path d="M22.3888 9.80762H10.7827C10.5807 9.80762 10.417 9.97289 10.417 10.1768C10.417 10.3806 10.5807 10.5459 10.7827 10.5459H22.3888C22.5908 10.5459 22.7546 10.3806 22.7546 10.1768C22.7546 9.97289 22.5908 9.80762 22.3888 9.80762Z" fill="#3A9BF4"/>
<path d="M22.3888 12.6294H10.7827C10.5807 12.6294 10.417 12.7947 10.417 12.9985C10.417 13.2024 10.5807 13.3677 10.7827 13.3677H22.3888C22.5908 13.3677 22.7546 13.2024 22.7546 12.9985C22.7546 12.7947 22.5908 12.6294 22.3888 12.6294Z" fill="#3A9BF4"/>
<path d="M22.3888 15.4512H10.7827C10.5807 15.4512 10.417 15.6164 10.417 15.8203C10.417 16.0242 10.5807 16.1895 10.7827 16.1895H22.3888C22.5908 16.1895 22.7546 16.0242 22.7546 15.8203C22.7546 15.6164 22.5908 15.4512 22.3888 15.4512Z" fill="#3A9BF4"/>
<path d="M23.5509 6.57922H9.62137C8.44843 6.57922 7.49414 7.54234 7.49414 8.72624V17.5668C7.49414 18.7506 8.44838 19.7138 9.62137 19.7138H19.3847C19.4891 19.7138 19.5861 19.7612 19.6508 19.8439L22.8038 23.8726C22.928 24.0314 23.1093 24.1179 23.2992 24.1179C23.3697 24.1179 23.4415 24.106 23.5119 24.0813C23.7717 23.9902 23.9395 23.752 23.9395 23.4745V19.6771C24.9258 19.4912 25.6782 18.6111 25.6782 17.5668V8.72619C25.6782 7.54234 24.7239 6.57922 23.5509 6.57922ZM24.9467 17.5668C24.9467 18.3334 24.3287 18.9652 23.5691 18.9749C23.3689 18.9775 23.208 19.142 23.208 19.3441V23.1981L20.2249 19.3863C20.0206 19.1252 19.7143 18.9755 19.3847 18.9755H9.62137C8.85176 18.9755 8.22562 18.3435 8.22562 17.5667V8.72619C8.22562 7.94942 8.85171 7.31746 9.62137 7.31746H23.5509C24.3205 7.31746 24.9467 7.94942 24.9467 8.72619V17.5668Z" fill="#3A9BF4"/>
<path d="M6.09821 12.6829C5.84805 12.7188 5.62402 12.8488 5.46739 13.0489L2.95496 16.2592V13.0417C2.95496 12.8397 2.79404 12.6752 2.5939 12.6726C1.95845 12.6644 1.44144 12.136 1.44144 11.4946V3.79866C1.44144 3.14883 1.96527 2.62012 2.60912 2.62012H14.7352C15.379 2.62012 15.9029 3.14883 15.9029 3.79866V5.22266C15.9029 5.42652 16.0666 5.5918 16.2686 5.5918C16.4706 5.5918 16.6344 5.42652 16.6344 5.22266V3.79866C16.6344 2.74174 15.7824 1.88184 14.7352 1.88184H2.60912C1.56194 1.88184 0.709961 2.74174 0.709961 3.79866V11.4946C0.709961 12.4133 1.362 13.1895 2.22353 13.371V16.6374C2.22353 16.8997 2.38212 17.1247 2.6276 17.2108C2.69416 17.2341 2.76195 17.2454 2.82866 17.2454C3.00797 17.2454 3.17938 17.1636 3.29676 17.0136L6.04145 13.5065C6.08105 13.4559 6.13776 13.423 6.20106 13.4139C6.40105 13.3852 6.54017 13.1984 6.51174 12.9965C6.48336 12.7947 6.29849 12.6541 6.09821 12.6829Z" fill="#3A9BF4"/>
</g>
<defs>
<clipPath id="clip0">
<rect width="24.9677" height="25.2" fill="white" transform="translate(0.709961 0.400024)"/>
</clipPath>
</defs>
</svg>
