<svg width="22" height="22" viewBox="0 0 22 22" fill="none" xmlns="http://www.w3.org/2000/svg">
<path d="M10.9997 3.58701C11.2628 3.58701 11.478 3.37179 11.478 3.10875V2.86962C11.478 2.60657 11.2628 2.39136 10.9997 2.39136C10.7367 2.39136 10.5215 2.60657 10.5215 2.86962V3.10875C10.5215 3.37179 10.7367 3.58701 10.9997 3.58701Z" fill="#3A9BF4"/>
<path d="M10.9997 18.4131C10.7367 18.4131 10.5215 18.6283 10.5215 18.8913V19.1305C10.5215 19.3935 10.7367 19.6087 10.9997 19.6087C11.2628 19.6087 11.478 19.3935 11.478 19.1305V18.8913C11.478 18.6283 11.2628 18.4131 10.9997 18.4131Z" fill="#3A9BF4"/>
<path d="M3.10899 10.5217H2.86986C2.60682 10.5217 2.3916 10.7369 2.3916 11C2.3916 11.263 2.60682 11.4783 2.86986 11.4783H3.10899C3.37203 11.4783 3.58725 11.263 3.58725 11C3.58725 10.7369 3.37203 10.5217 3.10899 10.5217Z" fill="#3A9BF4"/>
<path d="M19.1305 10.5217H18.8913C18.6283 10.5217 18.4131 10.7369 18.4131 11C18.4131 11.263 18.6283 11.4783 18.8913 11.4783H19.1305C19.3935 11.4783 19.6087 11.263 19.6087 11C19.6087 10.7369 19.3935 10.5217 19.1305 10.5217Z" fill="#3A9BF4"/>
<path d="M5.59527 4.92607C5.40397 4.73477 5.11701 4.73477 4.92571 4.92607C4.7344 5.11737 4.7344 5.40433 4.92571 5.59563L5.0931 5.76303C5.18875 5.85868 5.30832 5.9065 5.42788 5.9065C5.54745 5.9065 5.66701 5.85868 5.76266 5.76303C5.95397 5.57172 5.95397 5.28477 5.76266 5.09346L5.59527 4.92607Z" fill="#3A9BF4"/>
<path d="M5.0931 16.237L4.92571 16.4044C4.7344 16.5957 4.7344 16.8826 4.92571 17.0739C5.02136 17.1696 5.14092 17.2174 5.26049 17.2174C5.38005 17.2174 5.49962 17.1696 5.59527 17.0739L5.76266 16.9066C5.95397 16.7152 5.95397 16.4283 5.76266 16.237C5.57136 16.0457 5.2844 16.0457 5.0931 16.237Z" fill="#3A9BF4"/>
<path d="M16.4046 4.92607L16.2372 5.09346C16.0459 5.28477 16.0459 5.57172 16.2372 5.76303C16.3329 5.85868 16.4524 5.9065 16.572 5.9065C16.6916 5.9065 16.8111 5.85868 16.9068 5.76303L17.0742 5.59563C17.2655 5.40433 17.2655 5.11737 17.0742 4.92607C16.8829 4.73477 16.5959 4.73477 16.4046 4.92607Z" fill="#3A9BF4"/>
<path d="M11.478 10.8087V6.45653C11.478 6.19349 11.2628 5.97827 10.9997 5.97827C10.7367 5.97827 10.5215 6.19349 10.5215 6.45653V11C10.5215 11.1196 10.5693 11.2391 10.665 11.3348L15.9019 16.5717C15.9976 16.6674 16.1171 16.7152 16.2367 16.7152C16.3562 16.7152 16.4758 16.6674 16.5715 16.5717C16.7628 16.3804 16.7628 16.0935 16.5715 15.9022L11.478 10.8087Z" fill="#3A9BF4"/>
<path d="M11 0C4.92609 0 0 4.92609 0 11C0 17.0739 4.92609 22 11 22C17.0739 22 22 17.0739 22 11C22 4.92609 17.0739 0 11 0ZM11 21.0435C5.45217 21.0435 0.956522 16.5478 0.956522 11C0.956522 5.45217 5.45217 0.956522 11 0.956522C16.5478 0.956522 21.0435 5.45217 21.0435 11C21.0435 16.5478 16.5478 21.0435 11 21.0435Z" fill="#3A9BF4"/>
</svg>
