<svg width="12" height="15" viewBox="0 0 12 15" fill="none" xmlns="http://www.w3.org/2000/svg">
<path d="M6 0C6.79565 0 7.55871 0.316071 8.12132 0.87868C8.68393 1.44129 9 2.20435 9 3V4H10C10.5304 4 11.0391 4.21071 11.4142 4.58579C11.7893 4.96086 12 5.46957 12 6V13C12 13.5304 11.7893 14.0391 11.4142 14.4142C11.0391 14.7893 10.5304 15 10 15H2C1.46957 15 0.960859 14.7893 0.585786 14.4142C0.210714 14.0391 0 13.5304 0 13V6C0 5.46957 0.210714 4.96086 0.585786 4.58579C0.960859 4.21071 1.46957 4 2 4H3V3C3 2.20435 3.31607 1.44129 3.87868 0.87868C4.44129 0.316071 5.20435 0 6 0ZM10 5H2C1.73478 5 1.48043 5.10536 1.29289 5.29289C1.10536 5.48043 1 5.73478 1 6V13C1 13.2652 1.10536 13.5196 1.29289 13.7071C1.48043 13.8946 1.73478 14 2 14H10C10.2652 14 10.5196 13.8946 10.7071 13.7071C10.8946 13.5196 11 13.2652 11 13V6C11 5.73478 10.8946 5.48043 10.7071 5.29289C10.5196 5.10536 10.2652 5 10 5ZM6 8.5C6.26522 8.5 6.51957 8.60536 6.70711 8.79289C6.89464 8.98043 7 9.23478 7 9.5C7 9.76522 6.89464 10.0196 6.70711 10.2071C6.51957 10.3946 6.26522 10.5 6 10.5C5.73478 10.5 5.48043 10.3946 5.29289 10.2071C5.10536 10.0196 5 9.76522 5 9.5C5 9.23478 5.10536 8.98043 5.29289 8.79289C5.48043 8.60536 5.73478 8.5 6 8.5ZM6 1C5.46957 1 4.96086 1.21071 4.58579 1.58579C4.21071 1.96086 4 2.46957 4 3V4H8V3C8 2.46957 7.78929 1.96086 7.41421 1.58579C7.03914 1.21071 6.53043 1 6 1Z" fill="#2E3D4B"/>
</svg>
