<svg width="30" height="30" viewBox="0 0 30 30" fill="none" xmlns="http://www.w3.org/2000/svg">
<circle opacity="0.5" cx="15" cy="15" r="15" fill="#6FCF97"/>
<g clip-path="url(#clip0)">
<path d="M20.711 9.28875C19.1855 7.76325 17.1572 6.9231 14.9998 6.9231C12.8423 6.9231 10.814 7.76325 9.28851 9.28875C7.76298 10.8143 6.92285 12.8426 6.92285 15C6.92285 17.1574 7.76298 19.1857 9.28851 20.7113C10.814 22.2368 12.8423 23.0769 14.9998 23.0769C17.1572 23.0769 19.1855 22.2368 20.711 20.7113C22.2365 19.1857 23.0767 17.1574 23.0767 15C23.0767 12.8426 22.2365 10.8143 20.711 9.28875ZM14.9998 22.1304C11.068 22.1304 7.86937 18.9317 7.86937 15C7.86937 11.0683 11.068 7.86961 14.9998 7.86961C18.9315 7.86961 22.1302 11.0683 22.1302 15C22.1302 18.9317 18.9315 22.1304 14.9998 22.1304Z" fill="white"/>
<path d="M18.8591 12.4086C18.6743 12.2238 18.3747 12.2238 18.1899 12.4086L14.0107 16.5878L11.8108 14.3878C11.626 14.203 11.3264 14.203 11.1415 14.3878C10.9567 14.5726 10.9567 14.8723 11.1415 15.0571L13.6761 17.5917C13.7685 17.6841 13.8896 17.7303 14.0107 17.7303C14.1318 17.7303 14.253 17.684 14.3453 17.5917L18.8591 13.0779C19.044 12.8931 19.044 12.5934 18.8591 12.4086Z" fill="white"/>
</g>
<defs>
<clipPath id="clip0">
<rect width="16.1538" height="16.1538" fill="white" transform="translate(6.92285 6.9231)"/>
</clipPath>
</defs>
</svg>
