<svg width="23" height="23" viewBox="0 0 23 23" fill="none" xmlns="http://www.w3.org/2000/svg">
<g clip-path="url(#clip0)">
<path d="M14.6147 9.82618e-07C13.0914 -0.000758325 11.6004 0.438558 10.3208 1.26512C9.04125 2.09167 8.02772 3.27028 7.40211 4.65918C6.77649 6.04809 6.56543 7.58815 6.79431 9.09416C7.02318 10.6002 7.68225 12.008 8.69225 13.1483L0.958496 21.9267L2.03183 22.885L9.74641 14.145C10.7387 14.9212 11.9022 15.449 13.1398 15.6846C14.3774 15.9201 15.6534 15.8565 16.8615 15.4991C18.0695 15.1417 19.1747 14.5008 20.0849 13.6297C20.9952 12.7587 21.6841 11.6828 22.0943 10.4917C22.5046 9.30049 22.6243 8.02854 22.4434 6.78175C22.2626 5.53496 21.7864 4.34944 21.0547 3.32391C20.3229 2.29839 19.3567 1.46257 18.2365 0.88606C17.1163 0.309552 15.8746 0.00904963 14.6147 0.00958432V9.82618e-07ZM14.6147 14.375C12.8991 14.375 11.2538 13.6935 10.0406 12.4803C8.82752 11.2672 8.146 9.62187 8.146 7.90625C8.146 6.19063 8.82752 4.54528 10.0406 3.33215C11.2538 2.11903 12.8991 1.4375 14.6147 1.4375C16.3304 1.4375 17.9757 2.11903 19.1888 3.33215C20.402 4.54528 21.0835 6.19063 21.0835 7.90625C21.0835 9.62187 20.402 11.2672 19.1888 12.4803C17.9757 13.6935 16.3304 14.375 14.6147 14.375Z" fill="#3A9BF4"/>
</g>
<defs>
<clipPath id="clip0">
<rect width="23" height="23" fill="white"/>
</clipPath>
</defs>
</svg>
