<svg width="32" height="32" viewBox="0 0 32 32" fill="none" xmlns="http://www.w3.org/2000/svg">
<path d="M27 9.5H7C6.60218 9.5 6.22064 9.34196 5.93934 9.06066C5.65804 8.77936 5.5 8.39782 5.5 8C5.5 7.60218 5.65804 7.22064 5.93934 6.93934C6.22064 6.65804 6.60218 6.5 7 6.5H24C24.1326 6.5 24.2598 6.44732 24.3536 6.35355C24.4473 6.25979 24.5 6.13261 24.5 6C24.5 5.86739 24.4473 5.74021 24.3536 5.64645C24.2598 5.55268 24.1326 5.5 24 5.5H7C6.33718 5.50073 5.70172 5.76435 5.23304 6.23304C4.76435 6.70172 4.50073 7.33718 4.5 8V24C4.50073 24.6628 4.76435 25.2983 5.23304 25.767C5.70172 26.2356 6.33718 26.4993 7 26.5H27C27.3977 26.4996 27.779 26.3414 28.0602 26.0602C28.3414 25.779 28.4996 25.3977 28.5 25V11C28.4996 10.6023 28.3414 10.221 28.0602 9.93981C27.779 9.6586 27.3977 9.50043 27 9.5ZM27.5 25C27.4999 25.1326 27.4471 25.2597 27.3534 25.3534C27.2597 25.4471 27.1326 25.4999 27 25.5H7C6.60231 25.4996 6.22103 25.3414 5.93982 25.0602C5.6586 24.779 5.50043 24.3977 5.5 24V9.99875C5.93214 10.3246 6.45878 10.5006 7 10.5H27C27.1326 10.5001 27.2597 10.5529 27.3534 10.6466C27.4471 10.7403 27.4999 10.8674 27.5 11V25ZM23.5 18C23.5 18.1978 23.4414 18.3911 23.3315 18.5556C23.2216 18.72 23.0654 18.8482 22.8827 18.9239C22.7 18.9996 22.4989 19.0194 22.3049 18.9808C22.1109 18.9422 21.9327 18.847 21.7929 18.7071C21.653 18.5673 21.5578 18.3891 21.5192 18.1951C21.4806 18.0011 21.5004 17.8 21.5761 17.6173C21.6518 17.4346 21.78 17.2784 21.9444 17.1685C22.1089 17.0586 22.3022 17 22.5 17C22.7652 17 23.0196 17.1054 23.2071 17.2929C23.3946 17.4804 23.5 17.7348 23.5 18Z" fill="#2E3D4B"/>
</svg>
