<svg width="21" height="21" viewBox="0 0 21 21" fill="none" xmlns="http://www.w3.org/2000/svg">
<path d="M18.812 3.5H16.9162V4.66667H18.6662V17.5H2.33283V4.66667H4.08283V3.5H2.187C2.05064 3.50228 1.91606 3.5314 1.79095 3.5857C1.66585 3.63999 1.55267 3.71841 1.45787 3.81645C1.36307 3.9145 1.28852 4.03026 1.23847 4.15713C1.18842 4.28399 1.16385 4.41947 1.16617 4.55583V17.6108C1.16385 17.7472 1.18842 17.8827 1.23847 18.0095C1.28852 18.1364 1.36307 18.2522 1.45787 18.3502C1.55267 18.4483 1.66585 18.5267 1.79095 18.581C1.91606 18.6353 2.05064 18.6644 2.187 18.6667H18.812C18.9484 18.6644 19.0829 18.6353 19.208 18.581C19.3331 18.5267 19.4463 18.4483 19.5411 18.3502C19.6359 18.2522 19.7105 18.1364 19.7605 18.0095C19.8106 17.8827 19.8351 17.7472 19.8328 17.6108V4.55583C19.8351 4.41947 19.8106 4.28399 19.7605 4.15713C19.7105 4.03026 19.6359 3.9145 19.5411 3.81645C19.4463 3.71841 19.3331 3.63999 19.208 3.5857C19.0829 3.5314 18.9484 3.50228 18.812 3.5Z" fill="#3A9BF4"/>
<path d="M4.66602 8.16602H5.83268V9.33268H4.66602V8.16602Z" fill="#3A9BF4"/>
<path d="M8.16602 8.16602H9.33268V9.33268H8.16602V8.16602Z" fill="#3A9BF4"/>
<path d="M11.666 8.16602H12.8327V9.33268H11.666V8.16602Z" fill="#3A9BF4"/>
<path d="M15.166 8.16602H16.3327V9.33268H15.166V8.16602Z" fill="#3A9BF4"/>
<path d="M4.66602 11.083H5.83268V12.2497H4.66602V11.083Z" fill="#3A9BF4"/>
<path d="M8.16602 11.083H9.33268V12.2497H8.16602V11.083Z" fill="#3A9BF4"/>
<path d="M11.666 11.083H12.8327V12.2497H11.666V11.083Z" fill="#3A9BF4"/>
<path d="M15.166 11.083H16.3327V12.2497H15.166V11.083Z" fill="#3A9BF4"/>
<path d="M4.66602 14H5.83268V15.1667H4.66602V14Z" fill="#3A9BF4"/>
<path d="M8.16602 14H9.33268V15.1667H8.16602V14Z" fill="#3A9BF4"/>
<path d="M11.666 14H12.8327V15.1667H11.666V14Z" fill="#3A9BF4"/>
<path d="M15.166 14H16.3327V15.1667H15.166V14Z" fill="#3A9BF4"/>
<path d="M5.83333 5.83366C5.98804 5.83366 6.13642 5.7722 6.24581 5.6628C6.35521 5.55341 6.41667 5.40504 6.41667 5.25033V1.75033C6.41667 1.59562 6.35521 1.44724 6.24581 1.33785C6.13642 1.22845 5.98804 1.16699 5.83333 1.16699C5.67862 1.16699 5.53025 1.22845 5.42085 1.33785C5.31146 1.44724 5.25 1.59562 5.25 1.75033V5.25033C5.25 5.40504 5.31146 5.55341 5.42085 5.6628C5.53025 5.7722 5.67862 5.83366 5.83333 5.83366Z" fill="#3A9BF4"/>
<path d="M15.1673 5.83366C15.322 5.83366 15.4704 5.7722 15.5798 5.6628C15.6892 5.55341 15.7507 5.40504 15.7507 5.25033V1.75033C15.7507 1.59562 15.6892 1.44724 15.5798 1.33785C15.4704 1.22845 15.322 1.16699 15.1673 1.16699C15.0126 1.16699 14.8642 1.22845 14.7548 1.33785C14.6454 1.44724 14.584 1.59562 14.584 1.75033V5.25033C14.584 5.40504 14.6454 5.55341 14.7548 5.6628C14.8642 5.7722 15.0126 5.83366 15.1673 5.83366Z" fill="#3A9BF4"/>
<path d="M7.58398 3.5H13.4173V4.66667H7.58398V3.5Z" fill="#3A9BF4"/>
</svg>
