<svg width="43" height="42" viewBox="0 0 43 42" fill="none" xmlns="http://www.w3.org/2000/svg">
<rect x="0.5" y="0.5" width="42" height="41" rx="4.5" stroke="#3A9BF4"/>
<g clip-path="url(#clip0_260_941)">
<path d="M31.3888 17.8076H19.7827C19.5807 17.8076 19.417 17.9729 19.417 18.1768C19.417 18.3806 19.5807 18.5459 19.7827 18.5459H31.3888C31.5908 18.5459 31.7546 18.3806 31.7546 18.1768C31.7546 17.9729 31.5908 17.8076 31.3888 17.8076Z" fill="#3A9BF4"/>
<path d="M31.3888 20.6294H19.7827C19.5807 20.6294 19.417 20.7947 19.417 20.9985C19.417 21.2024 19.5807 21.3677 19.7827 21.3677H31.3888C31.5908 21.3677 31.7546 21.2024 31.7546 20.9985C31.7546 20.7947 31.5908 20.6294 31.3888 20.6294Z" fill="#3A9BF4"/>
<path d="M31.3888 23.4512H19.7827C19.5807 23.4512 19.417 23.6164 19.417 23.8203C19.417 24.0242 19.5807 24.1895 19.7827 24.1895H31.3888C31.5908 24.1895 31.7546 24.0242 31.7546 23.8203C31.7546 23.6164 31.5908 23.4512 31.3888 23.4512Z" fill="#3A9BF4"/>
<path d="M32.5509 14.5792H18.6214C17.4484 14.5792 16.4941 15.5423 16.4941 16.7262V25.5668C16.4941 26.7506 17.4484 27.7138 18.6214 27.7138H28.3847C28.4891 27.7138 28.5861 27.7612 28.6508 27.8439L31.8038 31.8726C31.928 32.0314 32.1093 32.1179 32.2992 32.1179C32.3697 32.1179 32.4415 32.106 32.5119 32.0813C32.7717 31.9902 32.9395 31.752 32.9395 31.4745V27.6771C33.9258 27.4912 34.6782 26.6111 34.6782 25.5668V16.7262C34.6782 15.5423 33.7239 14.5792 32.5509 14.5792ZM33.9467 25.5668C33.9467 26.3334 33.3287 26.9652 32.5691 26.9749C32.3689 26.9775 32.208 27.142 32.208 27.3441V31.1981L29.2249 27.3863C29.0206 27.1252 28.7143 26.9755 28.3847 26.9755H18.6214C17.8518 26.9755 17.2256 26.3435 17.2256 25.5667V16.7262C17.2256 15.9494 17.8517 15.3175 18.6214 15.3175H32.5509C33.3205 15.3175 33.9467 15.9494 33.9467 16.7262V25.5668Z" fill="#3A9BF4"/>
<path d="M15.0982 20.6829C14.848 20.7188 14.624 20.8488 14.4674 21.0489L11.955 24.2592V21.0417C11.955 20.8397 11.794 20.6752 11.5939 20.6726C10.9584 20.6644 10.4414 20.136 10.4414 19.4946V11.7987C10.4414 11.1488 10.9653 10.6201 11.6091 10.6201H23.7352C24.379 10.6201 24.9029 11.1488 24.9029 11.7987V13.2227C24.9029 13.4265 25.0666 13.5918 25.2686 13.5918C25.4706 13.5918 25.6344 13.4265 25.6344 13.2227V11.7987C25.6344 10.7417 24.7824 9.88184 23.7352 9.88184H11.6091C10.5619 9.88184 9.70996 10.7417 9.70996 11.7987V19.4946C9.70996 20.4133 10.362 21.1895 11.2235 21.371V24.6374C11.2235 24.8997 11.3821 25.1247 11.6276 25.2108C11.6942 25.2341 11.7619 25.2454 11.8287 25.2454C12.008 25.2454 12.1794 25.1636 12.2968 25.0136L15.0415 21.5065C15.081 21.4559 15.1378 21.423 15.2011 21.4139C15.401 21.3852 15.5402 21.1984 15.5117 20.9965C15.4834 20.7947 15.2985 20.6541 15.0982 20.6829Z" fill="#3A9BF4"/>
</g>
<defs>
<clipPath id="clip0_260_941">
<rect width="24.9677" height="25.2" fill="white" transform="translate(9.70996 8.40002)"/>
</clipPath>
</defs>
</svg>
