<svg width="22" height="22" viewBox="0 0 22 22" fill="none" xmlns="http://www.w3.org/2000/svg">
<path d="M10.9997 3.58725C11.2628 3.58725 11.478 3.37203 11.478 3.10899V2.86986C11.478 2.60682 11.2628 2.3916 10.9997 2.3916C10.7367 2.3916 10.5215 2.60682 10.5215 2.86986V3.10899C10.5215 3.37203 10.7367 3.58725 10.9997 3.58725Z" fill="#3A9BF4"/>
<path d="M10.9997 18.4131C10.7367 18.4131 10.5215 18.6283 10.5215 18.8913V19.1305C10.5215 19.3935 10.7367 19.6087 10.9997 19.6087C11.2628 19.6087 11.478 19.3935 11.478 19.1305V18.8913C11.478 18.6283 11.2628 18.4131 10.9997 18.4131Z" fill="#3A9BF4"/>
<path d="M3.10801 10.5215H2.86888C2.60584 10.5215 2.39062 10.7367 2.39062 10.9997C2.39062 11.2628 2.60584 11.478 2.86888 11.478H3.10801C3.37106 11.478 3.58627 11.2628 3.58627 10.9997C3.58627 10.7367 3.37106 10.5215 3.10801 10.5215Z" fill="#3A9BF4"/>
<path d="M19.1295 10.5215H18.8904C18.6273 10.5215 18.4121 10.7367 18.4121 10.9997C18.4121 11.2628 18.6273 11.478 18.8904 11.478H19.1295C19.3925 11.478 19.6078 11.2628 19.6078 10.9997C19.6078 10.7367 19.3925 10.5215 19.1295 10.5215Z" fill="#3A9BF4"/>
<path d="M5.59625 4.9257C5.40494 4.7344 5.11799 4.7344 4.92668 4.9257C4.73538 5.11701 4.73538 5.40396 4.92668 5.59527L5.09407 5.76266C5.18973 5.85831 5.30929 5.90614 5.42886 5.90614C5.54842 5.90614 5.66799 5.85831 5.76364 5.76266C5.95495 5.57136 5.95495 5.2844 5.76364 5.0931L5.59625 4.9257Z" fill="#3A9BF4"/>
<path d="M5.09407 16.2372L4.92668 16.4046C4.73538 16.5959 4.73538 16.8829 4.92668 17.0742C5.02233 17.1698 5.1419 17.2177 5.26147 17.2177C5.38103 17.2177 5.5006 17.1698 5.59625 17.0742L5.76364 16.9068C5.95495 16.7155 5.95495 16.4285 5.76364 16.2372C5.57234 16.0459 5.28538 16.0459 5.09407 16.2372Z" fill="#3A9BF4"/>
<path d="M16.4046 4.9257L16.2372 5.0931C16.0459 5.2844 16.0459 5.57136 16.2372 5.76266C16.3329 5.85831 16.4524 5.90614 16.572 5.90614C16.6916 5.90614 16.8111 5.85831 16.9068 5.76266L17.0742 5.59527C17.2655 5.40396 17.2655 5.11701 17.0742 4.9257C16.8829 4.7344 16.5959 4.7344 16.4046 4.9257Z" fill="#3A9BF4"/>
<path d="M11.478 10.809V6.45678C11.478 6.19373 11.2628 5.97852 10.9997 5.97852C10.7367 5.97852 10.5215 6.19373 10.5215 6.45678V11.0003C10.5215 11.1198 10.5693 11.2394 10.665 11.335L15.9019 16.572C15.9976 16.6676 16.1171 16.7155 16.2367 16.7155C16.3562 16.7155 16.4758 16.6676 16.5715 16.572C16.7628 16.3807 16.7628 16.0937 16.5715 15.9024L11.478 10.809Z" fill="#3A9BF4"/>
<path d="M11 0C4.92609 0 0 4.92609 0 11C0 17.0739 4.92609 22 11 22C17.0739 22 22 17.0739 22 11C22 4.92609 17.0739 0 11 0ZM11 21.0435C5.45217 21.0435 0.956522 16.5478 0.956522 11C0.956522 5.45217 5.45217 0.956522 11 0.956522C16.5478 0.956522 21.0435 5.45217 21.0435 11C21.0435 16.5478 16.5478 21.0435 11 21.0435Z" fill="#3A9BF4"/>
</svg>
