<svg width="42" height="42" viewBox="0 0 42 42" fill="none" xmlns="http://www.w3.org/2000/svg">
<rect x="0.5" y="0.5" width="41" height="41" rx="4.5" stroke="#3A9BF4"/>
<path d="M31.1639 11.6465H27.8959V10.5391C27.8959 10.3961 27.8391 10.259 27.738 10.1579C27.6369 10.0568 27.4998 10 27.3568 10C27.2139 10 27.0767 10.0568 26.9757 10.1579C26.8746 10.259 26.8178 10.3961 26.8178 10.5391V11.6465H22.0391V10.5391C22.0391 10.3961 21.9823 10.259 21.8812 10.1579C21.7801 10.0568 21.643 10 21.5 10C21.357 10 21.2199 10.0568 21.1188 10.1579C21.0177 10.259 20.9609 10.3961 20.9609 10.5391V11.6465H16.1822V10.5391C16.1822 10.3961 16.1254 10.259 16.0244 10.1579C15.9233 10.0568 15.7861 10 15.6432 10C15.5002 10 15.3631 10.0568 15.262 10.1579C15.1609 10.259 15.1041 10.3961 15.1041 10.5391V11.6465H11.8361C11.3493 11.6471 10.8826 11.8407 10.5384 12.1849C10.1942 12.5291 10.0006 12.9958 10 13.4826V31.1639C10.0005 31.6507 10.1942 32.1174 10.5384 32.4616C10.8826 32.8058 11.3493 32.9994 11.8361 33H31.1639C31.6507 32.9994 32.1174 32.8058 32.4616 32.4616C32.8058 32.1174 32.9994 31.6507 33 31.1639V13.4826C32.9994 12.9958 32.8058 12.5291 32.4616 12.1849C32.1174 11.8407 31.6507 11.6471 31.1639 11.6465ZM11.8361 12.7246H15.1041V13.8321C15.1041 13.9751 15.1609 14.1122 15.262 14.2133C15.3631 14.3144 15.5002 14.3712 15.6432 14.3712C15.7861 14.3712 15.9233 14.3144 16.0244 14.2133C16.1254 14.1122 16.1822 13.9751 16.1822 13.8321V12.7246H20.9609V13.8321C20.9609 13.9751 21.0177 14.1122 21.1188 14.2133C21.2199 14.3144 21.357 14.3712 21.5 14.3712C21.643 14.3712 21.7801 14.3144 21.8812 14.2133C21.9823 14.1122 22.0391 13.9751 22.0391 13.8321V12.7246H26.8178V13.8321C26.8178 13.9751 26.8746 14.1122 26.9757 14.2133C27.0767 14.3144 27.2139 14.3712 27.3568 14.3712C27.4998 14.3712 27.6369 14.3144 27.738 14.2133C27.8391 14.1122 27.8959 13.9751 27.8959 13.8321V12.7246H31.1639C31.3649 12.7249 31.5575 12.8048 31.6996 12.9469C31.8417 13.089 31.9216 13.2817 31.9219 13.4826V17.1325H11.0781V13.4826C11.0784 13.2817 11.1583 13.089 11.3004 12.9469C11.4425 12.8048 11.6351 12.7249 11.8361 12.7246ZM31.1639 31.9219H11.8361C11.6351 31.9216 11.4425 31.8417 11.3004 31.6996C11.1583 31.5575 11.0784 31.3649 11.0781 31.1639V18.2106H31.9219V31.1639C31.9216 31.3649 31.8417 31.5575 31.6996 31.6996C31.5575 31.8417 31.3649 31.9216 31.1639 31.9219ZM26.683 24.685C26.7331 24.735 26.7728 24.7944 26.7999 24.8598C26.827 24.9253 26.8409 24.9954 26.8409 25.0661C26.8409 25.1369 26.827 25.207 26.7999 25.2724C26.7728 25.3378 26.7331 25.3973 26.683 25.4473L22.7281 29.4023C22.678 29.4524 22.6186 29.4921 22.5532 29.5192C22.4878 29.5462 22.4177 29.5602 22.3469 29.5602C22.2761 29.5602 22.206 29.5462 22.1406 29.5192C22.0752 29.4921 22.0158 29.4524 21.9657 29.4023C21.9156 29.3522 21.8759 29.2928 21.8488 29.2274C21.8218 29.162 21.8078 29.0919 21.8078 29.0211C21.8078 28.9503 21.8218 28.8802 21.8488 28.8148C21.8759 28.7494 21.9156 28.69 21.9657 28.6399L24.9925 25.6131L16.2662 25.6005C16.1232 25.6004 15.9861 25.5435 15.8851 25.4423C15.7841 25.3411 15.7274 25.204 15.7275 25.061C15.7276 24.9181 15.7845 24.781 15.8856 24.68C15.9868 24.5789 16.1239 24.5222 16.2669 24.5223H16.2677L25.0084 24.5351L21.9657 21.4925C21.8646 21.3914 21.8078 21.2543 21.8078 21.1113C21.8078 20.9683 21.8646 20.8312 21.9657 20.7301C22.0668 20.629 22.2039 20.5722 22.3469 20.5722C22.4899 20.5722 22.627 20.629 22.7281 20.7301L26.683 24.685Z" fill="#3A9BF4"/>
</svg>
