<svg width="41" height="41" viewBox="0 0 41 41" fill="none" xmlns="http://www.w3.org/2000/svg">
<path d="M19.0677 34.4147C17.8025 33.3993 6.05342 21.9738 5.92209 21.8489C5.40318 21.33 5.07647 20.7918 4.98678 20.2986C4.89389 19.7861 5.05084 19.3376 5.46725 18.9212C5.85483 18.5336 6.32889 18.3286 6.83818 18.3286C7.45959 18.3286 8.09701 18.6233 8.62873 19.1582L13.9555 24.2768C14.0484 24.3665 14.1701 24.4114 14.2887 24.4114C14.4136 24.4114 14.5353 24.3633 14.6282 24.2704C14.814 24.0846 14.814 23.7836 14.6314 23.5978L6.12709 14.8148C5.27506 13.9628 4.87467 12.6591 5.88686 11.6469C6.27443 11.2593 6.7485 11.0543 7.25779 11.0543C7.8792 11.0543 8.51662 11.349 9.04834 11.8839L17.748 20.3658C17.8409 20.4555 17.9626 20.5036 18.0844 20.5036C18.2061 20.5036 18.331 20.4555 18.4239 20.3626C18.6097 20.1768 18.6129 19.8757 18.4271 19.6868L7.9785 8.97551C7.49483 8.49184 7.20334 7.91207 7.15209 7.34832C7.10404 6.77496 7.30584 6.24324 7.73826 5.81082C8.12584 5.42324 8.5999 5.21824 9.1092 5.21824C9.73061 5.21824 10.368 5.51293 10.8997 6.04465L21.5565 16.4356C21.6494 16.5253 21.7712 16.5733 21.8929 16.5733C22.0146 16.5733 22.1395 16.5253 22.2324 16.4324C22.4182 16.2466 22.4214 15.9455 22.2356 15.7565L14.4969 7.80316C14.01 7.31629 13.7185 6.73973 13.6705 6.17598C13.6224 5.60262 13.8242 5.0709 14.2566 4.63848C14.6442 4.2509 15.1183 4.0459 15.6276 4.0459C16.249 4.0459 16.8864 4.34059 17.4181 4.87551C20.2561 7.66223 27.6649 14.9493 27.9147 15.2184C28.8661 15.875 29.0583 14.8821 29.1063 14.2382C29.1608 13.4887 28.3023 10.8718 28.802 8.51746C29.6412 5.38801 32.0596 5.90051 32.114 5.92613C33.4401 6.54754 33.1871 7.47645 32.7162 9.34387L32.6682 9.71223C32.1749 12.153 35.5638 19.3857 35.8137 19.927C37.1429 22.8354 38.674 28.7324 33.6035 33.8029C28.0461 39.3604 21.1658 36.5128 19.0677 34.4147Z" fill="url(#paint0_radial_1_678)"/>
<path d="M26.1981 37.5346C22.79 37.5346 19.8912 35.9042 18.7477 34.7735C17.7195 33.9343 11.2299 27.6689 5.94478 22.5407C5.73017 22.3325 5.60524 22.214 5.59243 22.198C4.99345 21.599 4.62189 20.9744 4.51618 20.385C4.39446 19.7156 4.60267 19.1102 5.12798 18.5817C5.60845 18.1012 6.19782 17.8482 6.83845 17.8482C7.59118 17.8482 8.34712 18.1941 8.96853 18.8187L14.2889 23.9309L5.78142 15.1479C4.80126 14.1678 4.30798 12.5438 5.54759 11.3074C6.02806 10.8269 6.61743 10.5739 7.25806 10.5739C8.01079 10.5739 8.76673 10.9198 9.38813 11.5444L18.0814 20.0199L7.63603 9.31184C7.07868 8.75449 6.73595 8.07223 6.67509 7.39316C6.61423 6.66926 6.86407 6.00621 7.39899 5.47129C7.87946 4.99082 8.46884 4.73777 9.10946 4.73777C9.85899 4.73777 10.6149 5.08051 11.2395 5.70512L21.8931 16.0929L14.1544 8.13949C13.5938 7.57895 13.2511 6.89668 13.1934 6.21762C13.1326 5.49691 13.3824 4.83387 13.9174 4.29895C14.3978 3.81848 14.9872 3.56543 15.6278 3.56543C16.3806 3.56543 17.1365 3.91137 17.7579 4.53598L20.0674 6.80059C24.1834 10.8365 27.6235 14.2158 27.9919 14.5938C28.1713 14.7379 28.4051 14.7924 28.5044 14.7443C28.5684 14.7123 28.6389 14.565 28.6261 14.2543C28.6069 13.7097 28.53 13.0339 28.4499 12.3196C28.2898 10.8846 28.1232 9.39832 28.3314 8.41816C28.7863 6.7173 29.6799 5.9966 30.3462 5.6859C31.2623 5.26309 32.1495 5.41043 32.3193 5.49051C33.9849 6.27207 33.655 7.57895 33.2002 9.39191L33.1906 9.43676L33.1393 9.81152C32.8062 11.4515 34.5166 15.9839 36.2271 19.6771L36.2527 19.7284C37.3963 22.2268 39.4559 28.6363 33.9465 34.1457C31.4128 36.6729 28.6709 37.5346 26.1981 37.5346ZM6.83845 18.8091C6.46048 18.8091 6.10173 18.9661 5.80704 19.2607C5.50274 19.565 5.39704 19.8597 5.4611 20.2121C5.53157 20.5996 5.81665 21.0609 6.26188 21.5093C6.26509 21.5125 6.39321 21.6375 6.61423 21.8489C14.1159 29.1296 18.6452 33.457 19.3691 34.04L19.4075 34.0752C21.1756 35.8433 27.7452 38.9824 33.2642 33.4634C38.3476 28.38 36.4353 22.4446 35.3751 20.1256L35.3527 20.0775C34.2508 17.7008 31.7459 11.9352 32.1912 9.63535L32.2649 9.15488C32.7581 7.19457 32.787 6.78457 31.9509 6.38098C31.7043 6.33613 29.9362 6.12152 29.2603 8.64238C29.0906 9.44637 29.2539 10.9166 29.3981 12.2139C29.4813 12.9474 29.5582 13.6425 29.5774 14.2222C29.6095 15.1351 29.177 15.4843 28.9144 15.6124C28.3795 15.8718 27.742 15.6508 27.3449 15.3177L27.3032 15.2793C27.1078 15.0679 22.4601 10.5098 19.3851 7.49246L17.0724 5.22145C16.2845 4.43027 15.2691 4.29895 14.5868 4.98121C14.2537 5.31434 14.1031 5.70512 14.1384 6.13754C14.1768 6.58918 14.4202 7.06004 14.827 7.46684L22.5818 15.4202C22.947 15.7918 22.947 16.4004 22.5754 16.7719C22.2199 17.1275 21.592 17.1339 21.2269 16.7815L10.5637 6.38738C9.77571 5.59941 8.75712 5.46809 8.07806 6.15035C7.74493 6.48348 7.59439 6.87426 7.62962 7.30668C7.67126 7.75832 7.9147 8.23238 8.31829 8.63277L18.7701 19.3504C19.1384 19.722 19.1352 20.3306 18.7637 20.7021C18.4081 21.0577 17.7803 21.0641 17.4152 20.7118L8.71228 12.2267C7.92431 11.4323 6.90571 11.3042 6.22665 11.9864C5.39704 12.8161 5.83907 13.8443 6.46689 14.4753L14.9776 23.2646C15.3427 23.6362 15.3395 24.2416 14.968 24.61C14.6092 24.9687 13.9878 24.9719 13.6227 24.6228L8.29587 19.5042C7.84743 19.0525 7.33173 18.8091 6.83845 18.8091Z" fill="#EDA600"/>
<path d="M27.1489 14.9082C25.3904 18.4989 25.6178 23.5246 28.2572 27.5573C28.5551 28.1019 29.0644 27.836 28.8049 27.2755C25.6178 20.456 28.9587 15.5424 28.9587 15.5424L27.1489 14.9082Z" fill="#EDA600"/>
<path d="M20.2344 1.44184C21.2017 1.1888 22.2331 1.21122 23.2357 1.44505C24.2319 1.68528 25.228 2.19138 25.968 3.01778C26.6919 3.83778 27.1371 4.83395 27.2877 5.87817C27.4286 6.91278 27.2973 7.97942 26.8072 8.86348C26.7495 7.87052 26.5766 6.95763 26.2851 6.1152C26.1345 5.69559 25.9584 5.2952 25.7437 4.91724C25.5323 4.54247 25.2825 4.17091 25.0166 3.86661C24.4753 3.242 23.7418 2.75513 22.9186 2.37716C22.0922 1.98638 21.1921 1.69809 20.2344 1.44184Z" fill="#C6E3FF"/>
<path d="M20.5 4.47812C21.0349 4.13858 21.7044 4.06812 22.3354 4.18022C22.9728 4.29233 23.5814 4.60944 24.0619 5.04827C24.5391 5.49351 24.8787 6.05405 25.0901 6.63702C25.1926 6.92851 25.2438 7.23601 25.2919 7.5339C25.3079 7.8414 25.3079 8.1489 25.2598 8.4564C25.0388 8.22257 24.8659 7.98874 24.7025 7.76132C24.5135 7.54671 24.3662 7.31929 24.1964 7.11108C23.8633 6.69788 23.5398 6.32312 23.1906 5.98999C22.8319 5.66648 22.4539 5.3814 22.0151 5.13476C21.5795 4.88171 21.0894 4.6703 20.5 4.47812Z" fill="#3A9BF4"/>
<path d="M2.18776 24.7734C2.6394 25.6575 3.11026 26.4775 3.658 27.2014C4.20253 27.9253 4.82714 28.5403 5.55425 28.9407C5.90659 29.1361 6.3262 29.3059 6.7362 29.434C7.14941 29.5653 7.57862 29.655 8.02066 29.7159C8.90472 29.8248 9.83362 29.8055 10.817 29.655C10.0546 30.318 9.03605 30.6704 7.99823 30.7473C6.94761 30.8177 5.88097 30.5903 4.92644 30.0522C3.9655 29.5045 3.26081 28.6332 2.81878 27.7075C2.37675 26.7754 2.13972 25.7728 2.18776 24.7734Z" fill="#C6E3FF"/>
<path d="M5.21506 24.3984C5.52577 24.9366 5.83327 25.369 6.1696 25.747C6.50272 26.1249 6.86147 26.4356 7.25225 26.7175C7.64944 26.9898 8.08506 27.23 8.55913 27.4702C8.79616 27.592 9.0492 27.688 9.29905 27.829C9.5585 27.9411 9.82116 28.0596 10.0966 28.2294C9.80514 28.3383 9.50725 28.4023 9.20295 28.4504C8.90186 28.4632 8.59116 28.4792 8.28366 28.4376C7.66866 28.3543 7.05366 28.1397 6.51553 27.7649C5.98702 27.3838 5.54819 26.8552 5.30795 26.2563C5.06452 25.6605 4.99405 24.9942 5.21506 24.3984Z" fill="#3A9BF4"/>
<defs>
<radialGradient id="paint0_radial_1_678" cx="0" cy="0" r="1" gradientUnits="userSpaceOnUse" gradientTransform="translate(14.1081 12.1722) rotate(-45) scale(29.1508)">
<stop offset="0.3533" stop-color="#FFCA28"/>
<stop offset="0.8723" stop-color="#FFB300"/>
</radialGradient>
</defs>
</svg>
