<svg width="42" height="42" viewBox="0 0 42 42" fill="none" xmlns="http://www.w3.org/2000/svg">
<rect x="0.5" y="0.5" width="41" height="41" rx="4.5" stroke="#3A9BF4"/>
<path d="M29.9018 18.5154L26.2351 14.8487C26.1496 14.7632 26.0482 14.6954 25.9365 14.6492C25.8248 14.6029 25.7051 14.5791 25.5843 14.5791C25.3402 14.5791 25.1061 14.6761 24.9334 14.8487C24.7608 15.0213 24.6639 15.2554 24.6639 15.4995C24.6639 15.7436 24.7608 15.9777 24.9334 16.1504L27.0418 18.2495H16.4176C16.1745 18.2495 15.9413 18.3461 15.7694 18.518C15.5975 18.6899 15.5009 18.9231 15.5009 19.1662C15.5009 19.4093 15.5975 19.6425 15.7694 19.8144C15.9413 19.9863 16.1745 20.0829 16.4176 20.0829H29.2509C29.4319 20.0819 29.6086 20.0275 29.7586 19.9264C29.9087 19.8252 30.0255 19.6819 30.0943 19.5145C30.1645 19.3476 30.1837 19.1636 30.1494 18.9858C30.1151 18.8079 30.029 18.6443 29.9018 18.5154ZM25.5843 21.9162H12.7509C12.57 21.9171 12.3933 21.9715 12.2432 22.0727C12.0932 22.1738 11.9764 22.3171 11.9076 22.4845C11.8374 22.6515 11.8182 22.8354 11.8525 23.0133C11.8868 23.1911 11.9729 23.3548 12.1001 23.4837L15.7668 27.1503C15.852 27.2363 15.9534 27.3045 16.0651 27.351C16.1768 27.3975 16.2966 27.4215 16.4176 27.4215C16.5386 27.4215 16.6584 27.3975 16.7701 27.351C16.8818 27.3045 16.9832 27.2363 17.0684 27.1503C17.1544 27.0651 17.2226 26.9637 17.2691 26.852C17.3156 26.7403 17.3396 26.6205 17.3396 26.4995C17.3396 26.3785 17.3156 26.2587 17.2691 26.147C17.2226 26.0353 17.1544 25.9339 17.0684 25.8487L14.9601 23.7495H25.5843C25.8274 23.7495 26.0605 23.6529 26.2325 23.481C26.4044 23.3091 26.5009 23.076 26.5009 22.8329C26.5009 22.5897 26.4044 22.3566 26.2325 22.1847C26.0605 22.0128 25.8274 21.9162 25.5843 21.9162Z" fill="#3A9BF4"/>
</svg>
