<svg width="22" height="22" viewBox="0 0 22 22" fill="none" xmlns="http://www.w3.org/2000/svg">
<path d="M17.0156 6.5004V3.4375C17.0153 3.11852 16.8884 2.81271 16.6628 2.58716C16.4373 2.36161 16.1315 2.23474 15.8125 2.23438H6.1875C5.86852 2.23474 5.56271 2.36161 5.33716 2.58716C5.11161 2.81271 4.98474 3.11852 4.98438 3.4375V6.53125C4.98483 6.71795 5.02851 6.90201 5.11201 7.069C5.1955 7.23599 5.31654 7.38137 5.46562 7.49375L10.1406 11L5.46562 14.5063C5.31654 14.6186 5.1955 14.764 5.11201 14.931C5.02851 15.098 4.98483 15.2821 4.98438 15.4688V18.5625C4.98474 18.8815 5.11161 19.1873 5.33716 19.4128C5.56271 19.6384 5.86852 19.7653 6.1875 19.7656H15.8125C16.1315 19.7653 16.4373 19.6384 16.6628 19.4128C16.8884 19.1873 17.0153 18.8815 17.0156 18.5625V15.4996C17.0151 15.3137 16.9718 15.1303 16.889 14.9639C16.8061 14.7974 16.686 14.6523 16.538 14.5398L11.8551 11L16.538 7.46023C16.686 7.34772 16.8061 7.20258 16.889 7.03609C16.9718 6.86961 17.0152 6.68627 17.0156 6.50031V6.5004ZM15.9844 15.4997V18.5625C15.9843 18.6081 15.9662 18.6517 15.934 18.684C15.9017 18.7162 15.8581 18.7343 15.8125 18.7344H6.1875C6.14194 18.7343 6.09826 18.7162 6.06604 18.684C6.03382 18.6517 6.01569 18.6081 6.01562 18.5625V15.4688C6.01568 15.4421 6.02192 15.4158 6.03385 15.3919C6.04578 15.3681 6.06307 15.3473 6.08438 15.3312L10.9988 11.6454L15.9161 15.3624C15.9373 15.3785 15.9545 15.3993 15.9663 15.423C15.9781 15.4468 15.9843 15.473 15.9844 15.4996V15.4997ZM15.9844 6.50048C15.9843 6.52705 15.9781 6.55325 15.9663 6.57704C15.9545 6.60083 15.9373 6.62157 15.9161 6.63764L10.9988 10.3546L6.08438 6.66875C6.06307 6.6527 6.04578 6.63193 6.03385 6.60807C6.02192 6.58422 6.01568 6.55792 6.01562 6.53125V3.4375C6.01569 3.39194 6.03382 3.34826 6.06604 3.31604C6.09826 3.28382 6.14194 3.26569 6.1875 3.26562H15.8125C15.8581 3.26569 15.9017 3.28382 15.934 3.31604C15.9662 3.34826 15.9843 3.39194 15.9844 3.4375V6.50048Z" fill="#3A9BF4"/>
</svg>
