<svg width="21" height="21" viewBox="0 0 21 21" fill="none" xmlns="http://www.w3.org/2000/svg">
<g clip-path="url(#clip0)">
<path d="M11.8125 3.6575C11.571 3.6575 11.375 3.4615 11.375 3.22V1.75C11.375 1.26788 10.9821 0.875 10.5 0.875C10.0179 0.875 9.625 1.26788 9.625 1.75V3.22C9.625 3.4615 9.429 3.6575 9.1875 3.6575C8.946 3.6575 8.75 3.46238 8.75 3.22V1.75C8.75 0.784875 9.53487 0 10.5 0C11.4651 0 12.25 0.784875 12.25 1.75V3.22C12.25 3.46238 12.054 3.6575 11.8125 3.6575Z" fill="#5B5B5B"/>
<path d="M10.5 21C8.81125 21 7.4375 19.6263 7.4375 17.9375C7.4375 17.696 7.6335 17.5 7.875 17.5C8.1165 17.5 8.3125 17.696 8.3125 17.9375C8.3125 19.1433 9.29425 20.125 10.5 20.125C11.7057 20.125 12.6875 19.1433 12.6875 17.9375C12.6875 17.696 12.8835 17.5 13.125 17.5C13.3665 17.5 13.5625 17.696 13.5625 17.9375C13.5625 19.6263 12.1887 21 10.5 21Z" fill="#5B5B5B"/>
<path d="M17.9375 18.375H3.0625C2.33888 18.375 1.75 17.7861 1.75 17.0625C1.75 16.6784 1.91713 16.3152 2.20938 16.065C3.58838 14.8995 4.375 13.2037 4.375 11.4082V8.75C4.375 5.3725 7.1225 2.625 10.5 2.625C13.8775 2.625 16.625 5.3725 16.625 8.75V11.4082C16.625 13.2046 17.4116 14.8995 18.7836 16.0589C19.0829 16.3152 19.25 16.6784 19.25 17.0625C19.25 17.7861 18.662 18.375 17.9375 18.375ZM10.5 3.5C7.60463 3.5 5.25 5.85462 5.25 8.75V11.4082C5.25 13.4627 4.3505 15.4009 2.78163 16.7274C2.681 16.8131 2.625 16.9347 2.625 17.0625C2.625 17.304 2.821 17.5 3.0625 17.5H17.9375C18.179 17.5 18.375 17.304 18.375 17.0625C18.375 16.9347 18.319 16.8131 18.2219 16.73C16.6504 15.4009 15.75 13.4619 15.75 11.4082V8.75C15.75 5.85462 13.3954 3.5 10.5 3.5Z" fill="#5B5B5B"/>
</g>
<defs>
<clipPath id="clip0">
<rect width="21" height="21" fill="white"/>
</clipPath>
</defs>
</svg>
