<svg width="30" height="31" viewBox="0 0 30 31" fill="" xmlns="http://www.w3.org/2000/svg">
<g clip-path="url(#clip0)">
<path d="M26.0483 11.9705H12.103C11.8603 11.9705 11.6636 12.167 11.6636 12.4094C11.6636 12.6517 11.8603 12.8483 12.103 12.8483H26.0483C26.291 12.8483 26.4878 12.6517 26.4878 12.4094C26.4878 12.167 26.291 11.9705 26.0483 11.9705Z" fill=""/>
<path d="M26.0483 15.3254H12.103C11.8603 15.3254 11.6636 15.5219 11.6636 15.7643C11.6636 16.0067 11.8603 16.2032 12.103 16.2032H26.0483C26.291 16.2032 26.4878 16.0067 26.4878 15.7643C26.4878 15.5219 26.291 15.3254 26.0483 15.3254Z" fill=""/>
<path d="M26.0483 18.6807H12.103C11.8603 18.6807 11.6636 18.8772 11.6636 19.1196C11.6636 19.362 11.8603 19.5585 12.103 19.5585H26.0483C26.291 19.5585 26.4878 19.362 26.4878 19.1196C26.4878 18.8772 26.291 18.6807 26.0483 18.6807Z" fill=""/>
<path d="M27.4439 8.13184H10.7069C9.2975 8.13184 8.15088 9.27695 8.15088 10.6846V21.1957C8.15088 22.6033 9.29744 23.7484 10.7069 23.7484H22.438C22.5634 23.7484 22.68 23.8048 22.7578 23.9032L26.5462 28.6932C26.6954 28.882 26.9133 28.9848 27.1414 28.9848C27.2262 28.9848 27.3124 28.9706 27.3971 28.9412C27.7092 28.833 27.9109 28.5498 27.9109 28.2198V23.7049C29.0959 23.4838 29.9999 22.4374 29.9999 21.1957V10.6845C29.9999 9.27695 28.8533 8.13184 27.4439 8.13184ZM29.121 21.1957C29.121 22.1073 28.3784 22.8584 27.4657 22.87C27.2253 22.8731 27.0319 23.0686 27.0319 23.3088V27.8912L23.4475 23.3591C23.202 23.0486 22.8341 22.8706 22.438 22.8706H10.7069C9.78213 22.8706 9.02979 22.1192 9.02979 21.1956V10.6845C9.02979 9.76096 9.78207 9.00957 10.7069 9.00957H27.4439C28.3687 9.00957 29.121 9.76096 29.121 10.6845V21.1957Z" fill=""/>
<path d="M6.47426 15.3891C6.17367 15.4317 5.90449 15.5862 5.71629 15.8242L2.69748 19.6412V15.8157C2.69748 15.5755 2.50412 15.3799 2.26365 15.3768C1.50012 15.3671 0.878906 14.7387 0.878906 13.9761V4.82592C0.878906 4.05329 1.50832 3.42467 2.28193 3.42467H16.852C17.6256 3.42467 18.2551 4.05329 18.2551 4.82592V6.51901C18.2551 6.7614 18.4518 6.95791 18.6945 6.95791C18.9372 6.95791 19.134 6.7614 19.134 6.51901V4.82592C19.134 3.56927 18.1103 2.54688 16.852 2.54688H2.28193C1.02369 2.54688 0 3.56927 0 4.82592V13.9761C0 15.0685 0.783457 15.9914 1.81863 16.2071V20.0908C1.81863 20.4026 2.00918 20.6702 2.30414 20.7725C2.38412 20.8003 2.46557 20.8137 2.54572 20.8137C2.76117 20.8137 2.96713 20.7165 3.10816 20.5382L6.40605 16.3683C6.45363 16.3081 6.52178 16.269 6.59783 16.2581C6.83812 16.2241 7.00529 16.0019 6.97113 15.7619C6.93703 15.5219 6.7149 15.3548 6.47426 15.3891Z" fill="#2E3D4B"/>
</g>
<defs>
<clipPath id="clip0">
<rect width="30" height="29.9621" fill="" transform="translate(0 0.784912)"/>
</clipPath>
</defs>
</svg>
