<svg width="26" height="30" viewBox="0 0 26 30" fill="none" xmlns="http://www.w3.org/2000/svg">
<path d="M7.57827 19.1589C8.14843 19.1589 8.61064 18.6441 8.61064 18.0089C8.61064 17.3738 8.14843 16.8589 7.57827 16.8589C7.00811 16.8589 6.5459 17.3738 6.5459 18.0089C6.5459 18.6441 7.00811 19.1589 7.57827 19.1589Z" fill="#2E3D4B"/>
<path d="M18.4215 19.1589C18.9917 19.1589 19.4539 18.6441 19.4539 18.0089C19.4539 17.3738 18.9917 16.8589 18.4215 16.8589C17.8514 16.8589 17.3892 17.3738 17.3892 18.0089C17.3892 18.6441 17.8514 19.1589 18.4215 19.1589Z" fill="#2E3D4B"/>
<path d="M26 17.5207C26 15.8548 24.916 14.4667 23.4927 14.183V13.6803C23.4927 7.23518 18.7857 1.9917 13 1.9917C7.21431 1.9917 2.5073 7.23518 2.5073 13.6803V14.183C1.08396 14.4668 0 15.8549 0 17.5207C0 19.2009 1.10264 20.5989 2.54405 20.8657C2.74692 23.4411 3.80462 25.3433 5.69746 26.5271C7.38077 27.5799 9.76937 28.0916 13 28.0916C16.2306 28.0916 18.6193 27.5798 20.3026 26.5271C22.1954 25.3433 23.2531 23.4411 23.456 20.8657C24.8974 20.599 26 19.2009 26 17.5207ZM1.07483 17.5207C1.07483 16.5183 1.68157 15.6714 2.50724 15.41V19.6314C1.68157 19.3701 1.07483 18.5232 1.07483 17.5207ZM22.4179 19.9236C22.4179 22.5529 21.5538 24.3714 19.7764 25.483C18.258 26.4327 16.0415 26.8942 13 26.8942C9.95861 26.8942 7.74198 26.4327 6.22365 25.483C4.44616 24.3714 3.58213 22.5529 3.58213 19.9236V13.6803C3.58213 8.94273 6.41598 4.92928 10.2943 3.63099C13.2489 3.6726 14.8225 6.04855 14.8225 7.76897C14.8225 9.08663 13.8602 10.1587 12.6772 10.1587C11.7902 10.1587 11.0686 9.35476 11.0686 8.36666C11.0686 7.6422 11.5977 7.05274 12.2481 7.05274C12.5448 7.05274 12.7855 6.78469 12.7855 6.45408C12.7855 6.12346 12.5448 5.85541 12.2481 5.85541C11.005 5.85541 9.99374 6.98195 9.99374 8.36666C9.99374 10.015 11.1975 11.356 12.6772 11.356C14.4528 11.356 15.8973 9.74688 15.8973 7.76897C15.8973 6.52636 15.3368 5.18947 14.3981 4.19269C14.0226 3.79398 13.5954 3.4588 13.1291 3.1909C18.2628 3.26828 22.4179 7.94355 22.4179 13.6803V19.9236ZM23.4927 19.6314V15.4101C24.3184 15.6714 24.9252 16.5184 24.9252 17.5208C24.9252 18.5232 24.3184 19.3701 23.4927 19.6314Z" fill="#2E3D4B"/>
<path d="M15.0787 19.6575C13.9327 20.9342 12.0678 20.9342 10.9218 19.6575C10.7119 19.4237 10.3717 19.4237 10.1618 19.6575C9.95193 19.8913 9.95193 20.2704 10.1618 20.5042C10.9443 21.3759 11.9723 21.8118 13.0003 21.8118C14.0282 21.8118 15.0562 21.3759 15.8388 20.5042C16.0486 20.2704 16.0486 19.8913 15.8388 19.6575C15.6288 19.4237 15.2886 19.4237 15.0787 19.6575Z" fill="#2E3D4B"/>
</svg>
