<svg xmlns="http://www.w3.org/2000/svg" xmlns:xlink="http://www.w3.org/1999/xlink">
    <symbol id="study" xmlns="http://www.w3.org/2000/svg">
		<svg width="30" height="31" viewBox="0 0 30 31" fill="" xmlns="http://www.w3.org/2000/svg">
		<g clip-path="url(#clip0)">
		<path d="M29.7298 12.4779L15.2294 4.98717C15.0856 4.9128 14.9145 4.9128 14.7704 4.98717L0.270027 12.4779C0.104251 12.5637 0 12.7347 0 12.9212C0 13.108 0.104251 13.2789 0.270027 13.3647L6.99971 16.8414V22.4095C6.99971 24.4026 10.4388 25.9051 14.9999 25.9051C19.5611 25.9051 23.0002 24.4026 23.0002 22.4095V16.8414L26.0002 15.2933V18.0089C25.4038 18.2196 25.0036 18.7814 25.0002 19.4132V26.4045C25.0002 26.6803 25.2241 26.9039 25.5002 26.9039H27.5003C27.7764 26.9039 28.0003 26.6803 28.0003 26.4045V19.4132C27.9979 18.7807 27.5975 18.2179 27.0003 18.007V14.7751L29.7298 13.3647C29.8959 13.2789 30.0001 13.108 30.0001 12.9212C30.0001 12.7347 29.8959 12.5637 29.7298 12.4779ZM27.0003 25.9051H26.0002V19.4132C26.0002 19.1374 26.2241 18.9138 26.5003 18.9138C26.7764 18.9138 27.0003 19.1374 27.0003 19.4132V25.9051ZM22.0001 22.4095C22.0001 23.5882 19.0066 24.9064 14.9999 24.9064C10.9935 24.9064 7.99974 23.5882 7.99974 22.4095V17.3583L14.7704 20.854C14.9142 20.9289 15.0856 20.9289 15.2294 20.854L22.0001 17.3583V22.4095ZM26.4888 13.9146L15.0644 12.426C14.7905 12.3904 14.5397 12.5832 14.5041 12.8568C14.4684 13.1304 14.6615 13.3811 14.9355 13.4167L24.9319 14.719L22.2721 16.0933L14.9999 19.8496L7.72922 16.0933H7.72629L1.58818 12.9212L14.9999 5.99277L28.4114 12.9212L26.4888 13.9146Z" fill=""/>
		</g>
		<defs>
		<clipPath id="clip0">
		<rect width="30" height="29.9621" fill="" transform="translate(0 0.874756)"/>
		</clipPath>
		</defs>
		</svg>
    </symbol>
	<symbol id="chat" xmlns="http://www.w3.org/2000/svg">
	<svg width="30" height="31" viewBox="0 0 30 31" fill="" xmlns="http://www.w3.org/2000/svg">
<g clip-path="url(#clip0)">
<path d="M26.0483 11.9705H12.103C11.8603 11.9705 11.6636 12.167 11.6636 12.4094C11.6636 12.6517 11.8603 12.8483 12.103 12.8483H26.0483C26.291 12.8483 26.4878 12.6517 26.4878 12.4094C26.4878 12.167 26.291 11.9705 26.0483 11.9705Z" fill=""/>
<path d="M26.0483 15.3254H12.103C11.8603 15.3254 11.6636 15.5219 11.6636 15.7643C11.6636 16.0067 11.8603 16.2032 12.103 16.2032H26.0483C26.291 16.2032 26.4878 16.0067 26.4878 15.7643C26.4878 15.5219 26.291 15.3254 26.0483 15.3254Z" fill=""/>
<path d="M26.0483 18.6807H12.103C11.8603 18.6807 11.6636 18.8772 11.6636 19.1196C11.6636 19.362 11.8603 19.5585 12.103 19.5585H26.0483C26.291 19.5585 26.4878 19.362 26.4878 19.1196C26.4878 18.8772 26.291 18.6807 26.0483 18.6807Z" fill=""/>
<path d="M27.4439 8.13184H10.7069C9.2975 8.13184 8.15088 9.27695 8.15088 10.6846V21.1957C8.15088 22.6033 9.29744 23.7484 10.7069 23.7484H22.438C22.5634 23.7484 22.68 23.8048 22.7578 23.9032L26.5462 28.6932C26.6954 28.882 26.9133 28.9848 27.1414 28.9848C27.2262 28.9848 27.3124 28.9706 27.3971 28.9412C27.7092 28.833 27.9109 28.5498 27.9109 28.2198V23.7049C29.0959 23.4838 29.9999 22.4374 29.9999 21.1957V10.6845C29.9999 9.27695 28.8533 8.13184 27.4439 8.13184ZM29.121 21.1957C29.121 22.1073 28.3784 22.8584 27.4657 22.87C27.2253 22.8731 27.0319 23.0686 27.0319 23.3088V27.8912L23.4475 23.3591C23.202 23.0486 22.8341 22.8706 22.438 22.8706H10.7069C9.78213 22.8706 9.02979 22.1192 9.02979 21.1956V10.6845C9.02979 9.76096 9.78207 9.00957 10.7069 9.00957H27.4439C28.3687 9.00957 29.121 9.76096 29.121 10.6845V21.1957Z" fill=""/>
<path d="M6.47426 15.3891C6.17367 15.4317 5.90449 15.5862 5.71629 15.8242L2.69748 19.6412V15.8157C2.69748 15.5755 2.50412 15.3799 2.26365 15.3768C1.50012 15.3671 0.878906 14.7387 0.878906 13.9761V4.82592C0.878906 4.05329 1.50832 3.42467 2.28193 3.42467H16.852C17.6256 3.42467 18.2551 4.05329 18.2551 4.82592V6.51901C18.2551 6.7614 18.4518 6.95791 18.6945 6.95791C18.9372 6.95791 19.134 6.7614 19.134 6.51901V4.82592C19.134 3.56927 18.1103 2.54688 16.852 2.54688H2.28193C1.02369 2.54688 0 3.56927 0 4.82592V13.9761C0 15.0685 0.783457 15.9914 1.81863 16.2071V20.0908C1.81863 20.4026 2.00918 20.6702 2.30414 20.7725C2.38412 20.8003 2.46557 20.8137 2.54572 20.8137C2.76117 20.8137 2.96713 20.7165 3.10816 20.5382L6.40605 16.3683C6.45363 16.3081 6.52178 16.269 6.59783 16.2581C6.83812 16.2241 7.00529 16.0019 6.97113 15.7619C6.93703 15.5219 6.7149 15.3548 6.47426 15.3891Z" fill=""/>
</g>
<defs>
<clipPath id="clip0">
<rect width="30" height="29.9621" fill="" transform="translate(0 0.784912)"/>
</clipPath>
</defs>
</svg>

    </symbol>
	<symbol id="lessons" xmlns="http://www.w3.org/2000/svg">
<svg width="31" height="26" viewBox="0 0 31 26" fill="" xmlns="http://www.w3.org/2000/svg">
<path fill-rule="evenodd" clip-rule="evenodd" d="M2.25391 1.78125C1.838 1.78125 1.5 2.11887 1.5 2.5364V20.1003C1.5 20.5179 1.838 20.8555 2.25391 20.8555H28.5742C28.9901 20.8555 29.3281 20.5179 29.3281 20.1003V2.5364C29.3281 2.11887 28.9901 1.78125 28.5742 1.78125H2.25391ZM0.5 2.5364C0.5 1.56753 1.28478 0.78125 2.25391 0.78125H28.5742C29.5433 0.78125 30.3281 1.56753 30.3281 2.5364V20.1003C30.3281 21.0692 29.5433 21.8555 28.5742 21.8555H20.3V24.6208H22.9341C23.2102 24.6208 23.4341 24.8446 23.4341 25.1208C23.4341 25.3969 23.2102 25.6208 22.9341 25.6208H7.89424C7.6181 25.6208 7.39424 25.3969 7.39424 25.1208C7.39424 24.8446 7.6181 24.6208 7.89424 24.6208H10.5266L10.5274 21.8555H2.25391C1.28478 21.8555 0.5 21.0692 0.5 20.1003V2.5364ZM11.5274 21.8555L11.5266 24.6208H19.3V21.8555H11.5274ZM12.6576 5.86736C12.8123 5.77806 13.003 5.77812 13.1576 5.86753L19.6709 9.63182C19.8255 9.72116 19.9207 9.88617 19.9207 10.0647C19.9207 10.2433 19.8255 10.4083 19.6709 10.4976L13.1576 14.2619C13.003 14.3513 12.8123 14.3514 12.6576 14.2621C12.5028 14.1728 12.4075 14.0077 12.4075 13.829V6.30043C12.4075 6.12176 12.5028 5.95667 12.6576 5.86736ZM13.4075 7.1669V12.9625L18.4215 10.0647L13.4075 7.1669ZM7.89424 16.4654C8.17039 16.4654 8.39424 16.6893 8.39424 16.9654V18.205C8.39438 18.2098 8.39445 18.2147 8.39445 18.2195C8.39445 18.2244 8.39438 18.2292 8.39424 18.2341V19.4746C8.39424 19.7507 8.17039 19.9746 7.89424 19.9746C7.6181 19.9746 7.39424 19.7507 7.39424 19.4746V18.7195H4.1339C3.85776 18.7195 3.6339 18.4957 3.6339 18.2195C3.6339 17.9434 3.85776 17.7195 4.1339 17.7195H7.39424V16.9654C7.39424 16.6893 7.6181 16.4654 7.89424 16.4654ZM9.27355 18.2195C9.27355 17.9434 9.49741 17.7195 9.77355 17.7195H26.6943C26.9704 17.7195 27.1943 17.9434 27.1943 18.2195C27.1943 18.4957 26.9704 18.7195 26.6943 18.7195H9.77355C9.49741 18.7195 9.27355 18.4957 9.27355 18.2195Z" fill=""/>
</svg>

    </symbol>
	<symbol id="teacher" xmlns="http://www.w3.org/2000/svg">
	<svg width="34" height="35" viewBox="2 0 35 35" fill="" xmlns="http://www.w3.org/2000/svg">
<g clip-path="url(#clip0)">
<path d="M25.6963 25.524L21.9825 23.9356L21.6318 23.41C21.3011 22.9147 20.7276 22.6629 20.1596 22.7256V21.0108C21.9309 19.9925 23.167 18.1459 23.334 16.0043H23.6539C24.6624 16.0043 25.4828 15.185 25.4828 14.1778C25.4828 13.4685 25.0756 12.8528 24.4828 12.5504L24.9427 10.1006C25.2336 8.55117 24.8223 6.96679 23.8143 5.75369C23.127 4.92652 22.2186 4.34023 21.2098 4.05067C21.0387 2.15345 19.2166 0.655029 16.9999 0.655029C14.7832 0.655029 12.9611 2.15345 12.79 4.05073C11.7812 4.3403 10.8728 4.92665 10.1855 5.75376C9.17742 6.96686 8.7661 8.55123 9.05703 10.1007L9.51696 12.5505C8.92415 12.8529 8.51701 13.4686 8.51701 14.1778C8.51701 15.185 9.3374 16.0044 10.3458 16.0044H10.6657C10.8328 18.146 12.0689 19.9926 13.8402 21.0109V22.7257C13.2722 22.6629 12.6986 22.9147 12.368 23.4101L12.0172 23.9356L8.30345 25.5241C7.13968 26.0219 6.3877 27.1605 6.3877 28.4249V34.1147C6.3877 34.3894 6.61069 34.6121 6.88574 34.6121C7.1608 34.6121 7.38379 34.3894 7.38379 34.1147V28.4249C7.38379 27.5591 7.8987 26.7795 8.69558 26.4386L11.9898 25.0295L13.6773 26.7149C13.9708 27.0081 14.3696 27.1721 14.7826 27.1721C14.8112 27.1721 14.84 27.1713 14.8687 27.1697C15.312 27.1452 15.7252 26.9325 16.0025 26.5863L16.9999 25.3412L17.9972 26.5863C18.2746 26.9325 18.6878 27.1451 19.1311 27.1696C19.1599 27.1712 19.1886 27.172 19.2172 27.172C19.6301 27.172 20.0289 27.008 20.3225 26.7149L22.01 25.0295L25.3042 26.4386C26.1011 26.7794 26.616 27.5591 26.616 28.4249V34.1146C26.616 34.3894 26.839 34.6121 27.114 34.6121C27.3891 34.6121 27.6121 34.3894 27.6121 34.1146V28.4249C27.6121 27.1605 26.8601 26.0219 25.6963 25.524ZM23.6539 15.0096H21.8524C22.1268 14.6243 22.2888 14.1539 22.2888 13.6462C22.2888 13.5021 22.2751 13.3613 22.2502 13.2243C22.4364 13.3028 22.641 13.3461 22.8554 13.3461H23.6539C24.1131 13.3461 24.4866 13.7192 24.4866 14.1778C24.4867 14.6364 24.1131 15.0096 23.6539 15.0096ZM18.5626 13.6462C18.5626 12.8945 19.175 12.2829 19.9277 12.2829C20.6803 12.2829 21.2927 12.8945 21.2927 13.6462C21.2927 14.3979 20.6803 15.0096 19.9277 15.0096C19.175 15.0096 18.5626 14.3979 18.5626 13.6462ZM17.8479 12.5308C17.5828 12.4136 17.2942 12.3512 16.9999 12.3512C16.7063 12.3512 16.4174 12.4137 16.1519 12.5309C15.7529 11.7916 14.9704 11.288 14.0721 11.288C13.5637 11.288 13.0928 11.4498 12.707 11.7238V10.9879C12.707 10.6443 12.8714 10.3161 13.1466 10.1099L14.4169 9.15835C15.7849 9.73197 18.0556 10.4932 20.7616 10.6566C21.0594 10.6745 21.2928 10.9211 21.2928 11.2179V11.7238C20.907 11.4498 20.4361 11.288 19.9277 11.288C19.0294 11.288 18.2469 11.7916 17.8479 12.5308ZM14.0721 15.0096C13.3194 15.0096 12.707 14.3979 12.707 13.6462C12.707 12.8945 13.3194 12.2829 14.0721 12.2829C14.8248 12.2829 15.4372 12.8945 15.4372 13.6462C15.4372 14.3979 14.8248 15.0096 14.0721 15.0096ZM10.952 6.38906C11.7702 5.40444 12.9742 4.83977 14.2554 4.83977C14.5304 4.83977 14.7534 4.61706 14.7534 4.34235C14.7534 4.06764 14.5304 3.84493 14.2554 3.84493C14.1107 3.84493 13.9668 3.8509 13.8241 3.86244C14.0963 2.6061 15.4163 1.64986 16.9999 1.64986C18.5835 1.64986 19.9034 2.6061 20.1757 3.86244C20.0329 3.8509 19.889 3.84493 19.7444 3.84493H16.4677C16.1926 3.84493 15.9697 4.06764 15.9697 4.34235C15.9697 4.61706 16.1926 4.83977 16.4677 4.83977H19.7444C21.0256 4.83977 22.2296 5.4045 23.0478 6.38906C23.866 7.37368 24.1998 8.65967 23.9636 9.91727L23.5067 12.3513H22.8554C22.5429 12.3513 22.2888 12.0974 22.2888 11.7854V11.2179C22.2888 10.396 21.6444 9.71327 20.8217 9.66352C16.7088 9.41515 13.5686 7.659 13.5207 7.63194C13.282 7.49565 12.9777 7.57855 12.8412 7.81704C12.7047 8.05561 12.7877 8.35943 13.0265 8.49572C13.0508 8.50958 13.1751 8.57955 13.3869 8.68633L12.5489 9.31401C12.0242 9.7071 11.711 10.3328 11.711 10.9879V11.7854C11.711 12.0974 11.4568 12.3512 11.1444 12.3512H10.4931L10.0361 9.91721C9.79998 8.65967 10.1338 7.37368 10.952 6.38906ZM9.51311 14.1778C9.51311 13.7192 9.88664 13.3461 10.3458 13.3461H11.1443C11.3588 13.3461 11.5633 13.3027 11.7495 13.2243C11.7246 13.3613 11.7109 13.5021 11.7109 13.6462C11.7109 14.1539 11.8729 14.6243 12.1473 15.0096H10.3458C9.88671 15.0096 9.51311 14.6364 9.51311 14.1778ZM11.6653 16.0044H14.0721C15.3741 16.0044 16.4333 14.9465 16.4333 13.6462C16.4333 13.5993 16.4315 13.5528 16.4288 13.5065C16.5999 13.4017 16.7944 13.3461 16.9999 13.3461C17.2026 13.3461 17.3999 13.4027 17.571 13.5066C17.5683 13.5529 17.5665 13.5993 17.5665 13.6462C17.5665 14.9465 18.6258 16.0044 19.9277 16.0044H22.3345C22.0826 18.7226 19.7862 20.8577 16.9999 20.8577C14.2137 20.8577 11.9173 18.7225 11.6653 16.0044ZM16.9999 21.8525C17.7592 21.8525 18.4878 21.7186 19.1635 21.4735V23.0777L16.9999 24.0038L14.8363 23.0777V21.4735C15.5119 21.7186 16.2405 21.8525 16.9999 21.8525ZM15.2248 25.9648C15.1227 26.0922 14.9767 26.1673 14.8137 26.1763C14.6504 26.1854 14.4972 26.1268 14.3817 26.0114L12.8499 24.4816L13.1968 23.9619C13.3483 23.7349 13.6405 23.6482 13.8914 23.7556L16.2021 24.7447L15.2248 25.9648ZM19.6181 26.0114C19.5026 26.1268 19.349 26.1853 19.1861 26.1763C19.023 26.1673 18.8771 26.0922 18.775 25.9648L17.7976 24.7447L20.1083 23.7556C20.3594 23.6481 20.6514 23.7349 20.8029 23.9618L21.1498 24.4815L19.6181 26.0114Z" fill=""/>
</g>
<defs>
<clipPath id="clip0">
<rect width="34" height="33.957" fill="" transform="translate(0 0.655029)"/>
</clipPath>
</defs>
</svg>

    </symbol>
	<symbol id="child" xmlns="http://www.w3.org/2000/svg">
<svg width="26" height="30" viewBox="0 0 26 30" fill="" xmlns="http://www.w3.org/2000/svg">
<path d="M7.57827 19.1589C8.14843 19.1589 8.61064 18.6441 8.61064 18.0089C8.61064 17.3738 8.14843 16.8589 7.57827 16.8589C7.00811 16.8589 6.5459 17.3738 6.5459 18.0089C6.5459 18.6441 7.00811 19.1589 7.57827 19.1589Z" fill=""/>
<path d="M18.4215 19.1589C18.9917 19.1589 19.4539 18.6441 19.4539 18.0089C19.4539 17.3738 18.9917 16.8589 18.4215 16.8589C17.8514 16.8589 17.3892 17.3738 17.3892 18.0089C17.3892 18.6441 17.8514 19.1589 18.4215 19.1589Z" fill=""/>
<path d="M26 17.5207C26 15.8548 24.916 14.4667 23.4927 14.183V13.6803C23.4927 7.23518 18.7857 1.9917 13 1.9917C7.21431 1.9917 2.5073 7.23518 2.5073 13.6803V14.183C1.08396 14.4668 0 15.8549 0 17.5207C0 19.2009 1.10264 20.5989 2.54405 20.8657C2.74692 23.4411 3.80462 25.3433 5.69746 26.5271C7.38077 27.5799 9.76937 28.0916 13 28.0916C16.2306 28.0916 18.6193 27.5798 20.3026 26.5271C22.1954 25.3433 23.2531 23.4411 23.456 20.8657C24.8974 20.599 26 19.2009 26 17.5207ZM1.07483 17.5207C1.07483 16.5183 1.68157 15.6714 2.50724 15.41V19.6314C1.68157 19.3701 1.07483 18.5232 1.07483 17.5207ZM22.4179 19.9236C22.4179 22.5529 21.5538 24.3714 19.7764 25.483C18.258 26.4327 16.0415 26.8942 13 26.8942C9.95861 26.8942 7.74198 26.4327 6.22365 25.483C4.44616 24.3714 3.58213 22.5529 3.58213 19.9236V13.6803C3.58213 8.94273 6.41598 4.92928 10.2943 3.63099C13.2489 3.6726 14.8225 6.04855 14.8225 7.76897C14.8225 9.08663 13.8602 10.1587 12.6772 10.1587C11.7902 10.1587 11.0686 9.35476 11.0686 8.36666C11.0686 7.6422 11.5977 7.05274 12.2481 7.05274C12.5448 7.05274 12.7855 6.78469 12.7855 6.45408C12.7855 6.12346 12.5448 5.85541 12.2481 5.85541C11.005 5.85541 9.99374 6.98195 9.99374 8.36666C9.99374 10.015 11.1975 11.356 12.6772 11.356C14.4528 11.356 15.8973 9.74688 15.8973 7.76897C15.8973 6.52636 15.3368 5.18947 14.3981 4.19269C14.0226 3.79398 13.5954 3.4588 13.1291 3.1909C18.2628 3.26828 22.4179 7.94355 22.4179 13.6803V19.9236ZM23.4927 19.6314V15.4101C24.3184 15.6714 24.9252 16.5184 24.9252 17.5208C24.9252 18.5232 24.3184 19.3701 23.4927 19.6314Z" fill=""/>
<path d="M15.0787 19.6575C13.9327 20.9342 12.0678 20.9342 10.9218 19.6575C10.7119 19.4237 10.3717 19.4237 10.1618 19.6575C9.95193 19.8913 9.95193 20.2704 10.1618 20.5042C10.9443 21.3759 11.9723 21.8118 13.0003 21.8118C14.0282 21.8118 15.0562 21.3759 15.8388 20.5042C16.0486 20.2704 16.0486 19.8913 15.8388 19.6575C15.6288 19.4237 15.2886 19.4237 15.0787 19.6575Z" fill=""/>
</svg>
	
    </symbol>
	<symbol id="homework" xmlns="http://www.w3.org/2000/svg">
<svg width="30" height="30" viewBox="0 0 34 27" fill="" xmlns="http://www.w3.org/2000/svg">
<g clip-path="url(#clip0)">
<path fill-rule="evenodd" clip-rule="evenodd" d="M12.6999 8.09181C10.1237 10.6647 10.1237 14.8362 12.6999 17.4092C15.276 19.9821 19.4528 19.9821 22.029 17.4092C24.6052 14.8362 24.6052 10.6647 22.029 8.09181C19.4528 5.5189 15.276 5.5189 12.6999 8.09181ZM11.9727 18.1354C8.99499 15.1614 8.99499 10.3396 11.9727 7.36562C14.9505 4.39164 19.7784 4.39164 22.7561 7.36562C25.7338 10.3396 25.7338 15.1614 22.7561 18.1354C19.7784 21.1093 14.9505 21.1093 11.9727 18.1354Z" fill=""/>
<path fill-rule="evenodd" clip-rule="evenodd" d="M14.612 8.61201C14.771 8.52024 14.9669 8.52028 15.1259 8.61213L21.5181 12.3053C21.677 12.3971 21.7749 12.5667 21.7749 12.7502C21.7749 12.9337 21.6771 13.1033 21.5182 13.1951L15.1259 16.8896C14.9669 16.9815 14.771 16.9816 14.612 16.8898C14.453 16.798 14.355 16.6284 14.355 16.4448V9.05704C14.355 8.87344 14.4529 8.70379 14.612 8.61201ZM20.2341 12.7503L15.3826 9.94732V15.5543L20.2341 12.7503Z" fill=""/>
<path fill-rule="evenodd" clip-rule="evenodd" d="M20.2844 23.81L20.307 23.8097H32.3083V1.69171H20.3048C20.0673 1.69119 19.8321 1.73754 19.6124 1.82812C19.3928 1.9187 19.1931 2.05175 19.0248 2.21972L17.7267 3.51785C17.3259 3.91857 16.6764 3.91924 16.2749 3.51934L14.9733 2.22312C14.8052 2.05453 14.6057 1.92085 14.386 1.82969C14.1664 1.73852 13.931 1.69164 13.6933 1.69171L1.69171 1.69171V23.8097H13.693L13.7156 23.81C14.7431 23.8326 15.7201 24.2589 16.4358 24.9963C16.5094 25.0702 16.5968 25.1289 16.6928 25.1691C16.7902 25.2098 16.8946 25.2308 17 25.2308C17.1054 25.2308 17.2099 25.2098 17.3072 25.1691C17.4033 25.1289 17.4906 25.0702 17.5642 24.9963C18.2799 24.2589 19.2569 23.8326 20.2844 23.81ZM18.2989 25.7148C18.1292 25.887 17.9269 26.0237 17.7039 26.1171C17.481 26.2104 17.2417 26.2584 17 26.2584C16.7583 26.2584 16.519 26.2104 16.2961 26.1171C16.0731 26.0237 15.8709 25.887 15.7011 25.7148C15.1731 25.1693 14.4516 24.8541 13.693 24.8374H1.37461C1.18616 24.8374 1.00543 24.7624 0.872179 24.629C0.738926 24.4957 0.664064 24.3147 0.664064 24.1261V1.37532C0.66389 1.28187 0.682149 1.1893 0.717796 1.10293C0.753442 1.01656 0.805774 0.938081 0.871789 0.872C0.937804 0.805919 1.0162 0.753535 1.10249 0.717853C1.18878 0.682172 1.28125 0.663894 1.37461 0.664069H13.693C14.066 0.663955 14.4354 0.737524 14.78 0.880562C15.1246 1.0236 15.4376 1.23329 15.7011 1.49763L17 2.79118L18.2989 1.49231C18.5628 1.22894 18.876 1.02022 19.2206 0.878105C19.5652 0.735988 19.9344 0.663256 20.307 0.664069H32.6254C32.7188 0.663894 32.8112 0.682172 32.8975 0.717853C32.9838 0.753535 33.0622 0.805919 33.1282 0.872C33.1942 0.938081 33.2466 1.01656 33.2822 1.10293C33.3179 1.1893 33.3361 1.28187 33.3359 1.37532V24.1261C33.3359 24.3147 33.2611 24.4957 33.1278 24.629C32.9946 24.7624 32.8138 24.8374 32.6254 24.8374H20.307C19.5484 24.8541 18.827 25.1693 18.2989 25.7148Z" fill=""/>
<path fill-rule="evenodd" clip-rule="evenodd" d="M3.70117 4.21988C3.70117 3.9361 3.93122 3.70605 4.21499 3.70605H11.3178C11.6016 3.70605 11.8316 3.9361 11.8316 4.21988C11.8316 4.50365 11.6016 4.7337 11.3178 4.7337H4.21499C3.93122 4.7337 3.70117 4.50365 3.70117 4.21988Z" fill=""/>
<path fill-rule="evenodd" clip-rule="evenodd" d="M3.70117 21.2831C3.70117 20.9993 3.93122 20.7693 4.21499 20.7693H11.3178C11.6016 20.7693 11.8316 20.9993 11.8316 21.2831C11.8316 21.5669 11.6016 21.7969 11.3178 21.7969H4.21499C3.93122 21.7969 3.70117 21.5669 3.70117 21.2831Z" fill=""/>
<path fill-rule="evenodd" clip-rule="evenodd" d="M3.70117 12.7509C3.70117 12.4671 3.93122 12.2371 4.21499 12.2371H7.7664C8.05018 12.2371 8.28022 12.4671 8.28022 12.7509C8.28022 13.0347 8.05018 13.2647 7.7664 13.2647H4.21499C3.93122 13.2647 3.70117 13.0347 3.70117 12.7509Z" fill=""/>
<path fill-rule="evenodd" clip-rule="evenodd" d="M22.168 4.21988C22.168 3.9361 22.398 3.70605 22.6818 3.70605H29.7846C30.0684 3.70605 30.2984 3.9361 30.2984 4.21988C30.2984 4.50365 30.0684 4.7337 29.7846 4.7337H22.6818C22.398 4.7337 22.168 4.50365 22.168 4.21988Z" fill=""/>
<path fill-rule="evenodd" clip-rule="evenodd" d="M22.168 21.2831C22.168 20.9993 22.398 20.7693 22.6818 20.7693H29.7846C30.0684 20.7693 30.2984 20.9993 30.2984 21.2831C30.2984 21.5669 30.0684 21.7969 29.7846 21.7969H22.6818C22.398 21.7969 22.168 21.5669 22.168 21.2831Z" fill=""/>
<path fill-rule="evenodd" clip-rule="evenodd" d="M25.7192 12.7509C25.7192 12.4671 25.9493 12.2371 26.2331 12.2371H29.7845C30.0682 12.2371 30.2983 12.4671 30.2983 12.7509C30.2983 13.0347 30.0682 13.2647 29.7845 13.2647H26.2331C25.9493 13.2647 25.7192 13.0347 25.7192 12.7509Z" fill=""/>
</g>
<defs>
<clipPath id="clip0">
<rect width="34" height="26.9239" fill=""/>
</clipPath>
</defs>
</svg>

	
    </symbol>
	<symbol id="profile" xmlns="http://www.w3.org/2000/svg">
	<svg width="26" height="28" viewBox="0 0 26 28" fill="" xmlns="http://www.w3.org/2000/svg">
<g clip-path="url(#clip0)">
<path d="M12.9999 13.8616C6.14821 13.8616 0.57373 19.6432 0.57373 26.7494C0.57373 27.0587 0.815789 27.3097 1.11402 27.3097C1.41225 27.3097 1.65431 27.0587 1.65431 26.7494C1.65431 20.2606 6.74365 14.9822 13 14.9822C19.2563 14.9822 24.3457 20.2606 24.3457 26.7494C24.3457 27.0587 24.5877 27.3097 24.886 27.3097C25.1842 27.3097 25.4262 27.0587 25.4262 26.7494C25.4262 19.642 19.8517 13.8616 12.9999 13.8616Z" fill=""/>
<path d="M12.9991 0.34375C9.72289 0.34375 7.05615 3.10845 7.05615 6.50747C7.05615 9.90649 9.72294 12.6712 12.9991 12.6712C16.2753 12.6712 18.9421 9.90649 18.9421 6.50747C18.9421 3.10845 16.2753 0.34375 12.9991 0.34375ZM12.9991 11.5505C10.3183 11.5505 8.13668 9.28788 8.13668 6.50747C8.13668 3.72706 10.3183 1.46441 12.9991 1.46441C15.6799 1.46441 17.8615 3.72706 17.8615 6.50747C17.8615 9.28788 15.6799 11.5505 12.9991 11.5505Z" fill=""/>
</g>
<defs>
<clipPath id="clip0">
<rect width="26" height="26.9658" fill="" transform="translate(0 0.34375)"/>
</clipPath>
</defs>
</svg>

    </symbol>
	<symbol id="letter" xmlns="http://www.w3.org/2000/svg">
	<svg width="22" height="18" viewBox="0 0 22 18" fill="none" xmlns="http://www.w3.org/2000/svg">
<path d="M20.1667 0.75H1.83335C0.822207 0.75 0 1.57221 0 2.58335V15.4167C0 16.4278 0.822207 17.25 1.83335 17.25H20.1667C21.1778 17.25 22 16.4278 22 15.4167V2.58335C22 1.57221 21.1778 0.75 20.1667 0.75ZM1.83335 1.66665H20.1667C20.2342 1.66665 20.2938 1.69127 20.3571 1.7052C18.7699 3.15784 13.5069 7.97257 11.6652 9.63198C11.521 9.76179 11.2888 9.91665 11 9.91665C10.7113 9.91665 10.479 9.76179 10.3345 9.63155C8.49286 7.9724 3.22957 3.15741 1.64261 1.70528C1.70612 1.69136 1.76576 1.66665 1.83335 1.66665ZM0.916652 15.4167V2.58335C0.916652 2.49354 0.943723 2.41207 0.967957 2.33C2.18277 3.44186 5.85505 6.80133 8.23621 8.96666C5.86279 11.0054 2.18956 14.4879 0.965078 15.6556C0.943465 15.5776 0.916652 15.5014 0.916652 15.4167ZM20.1667 16.3333H1.83335C1.76013 16.3333 1.69503 16.3078 1.62667 16.2915C2.89197 15.0853 6.58857 11.5827 8.92027 9.58798C9.22423 9.86371 9.50189 10.1151 9.72078 10.3124C10.0986 10.6534 10.5407 10.8333 11 10.8333C11.4593 10.8333 11.9014 10.6534 12.2788 10.3128C12.4977 10.1155 12.7756 9.86384 13.0797 9.58798C15.4116 11.5825 19.1076 15.0848 20.3733 16.2915C20.305 16.3078 20.24 16.3333 20.1667 16.3333ZM21.0833 15.4167C21.0833 15.5013 21.0565 15.5776 21.035 15.6556C19.81 14.4873 16.1372 11.0052 13.7638 8.9667C16.1451 6.80138 19.8168 3.44221 21.032 2.32992C21.0563 2.41199 21.0833 2.4935 21.0833 2.5833V15.4167Z" fill="#5B5B5B"/>
</svg>

	</symbol>
	<symbol id="bell" xmlns="http://www.w3.org/2000/svg">
	<svg width="21" height="21" viewBox="0 0 21 21" fill="none" xmlns="http://www.w3.org/2000/svg">
<g clip-path="url(#clip0)">
<path d="M11.8125 3.6575C11.571 3.6575 11.375 3.4615 11.375 3.22V1.75C11.375 1.26788 10.9821 0.875 10.5 0.875C10.0179 0.875 9.625 1.26788 9.625 1.75V3.22C9.625 3.4615 9.429 3.6575 9.1875 3.6575C8.946 3.6575 8.75 3.46238 8.75 3.22V1.75C8.75 0.784875 9.53487 0 10.5 0C11.4651 0 12.25 0.784875 12.25 1.75V3.22C12.25 3.46238 12.054 3.6575 11.8125 3.6575Z" fill="#5B5B5B"/>
<path d="M10.5 21C8.81125 21 7.4375 19.6263 7.4375 17.9375C7.4375 17.696 7.6335 17.5 7.875 17.5C8.1165 17.5 8.3125 17.696 8.3125 17.9375C8.3125 19.1433 9.29425 20.125 10.5 20.125C11.7057 20.125 12.6875 19.1433 12.6875 17.9375C12.6875 17.696 12.8835 17.5 13.125 17.5C13.3665 17.5 13.5625 17.696 13.5625 17.9375C13.5625 19.6263 12.1887 21 10.5 21Z" fill="#5B5B5B"/>
<path d="M17.9375 18.375H3.0625C2.33888 18.375 1.75 17.7861 1.75 17.0625C1.75 16.6784 1.91713 16.3152 2.20938 16.065C3.58838 14.8995 4.375 13.2037 4.375 11.4082V8.75C4.375 5.3725 7.1225 2.625 10.5 2.625C13.8775 2.625 16.625 5.3725 16.625 8.75V11.4082C16.625 13.2046 17.4116 14.8995 18.7836 16.0589C19.0829 16.3152 19.25 16.6784 19.25 17.0625C19.25 17.7861 18.662 18.375 17.9375 18.375ZM10.5 3.5C7.60463 3.5 5.25 5.85462 5.25 8.75V11.4082C5.25 13.4627 4.3505 15.4009 2.78163 16.7274C2.681 16.8131 2.625 16.9347 2.625 17.0625C2.625 17.304 2.821 17.5 3.0625 17.5H17.9375C18.179 17.5 18.375 17.304 18.375 17.0625C18.375 16.9347 18.319 16.8131 18.2219 16.73C16.6504 15.4009 15.75 13.4619 15.75 11.4082V8.75C15.75 5.85462 13.3954 3.5 10.5 3.5Z" fill="#5B5B5B"/>
</g>
<defs>
<clipPath id="clip0">
<rect width="21" height="21" fill="white"/>
</clipPath>
</defs>
</svg>

	</symbol>
	<symbol id="header_wallet" xmlns="http://www.w3.org/2000/svg">
	<svg width="32" height="32" viewBox="0 0 32 32" fill="none" xmlns="http://www.w3.org/2000/svg">
<path d="M27 9.5H7C6.60218 9.5 6.22064 9.34196 5.93934 9.06066C5.65804 8.77936 5.5 8.39782 5.5 8C5.5 7.60218 5.65804 7.22064 5.93934 6.93934C6.22064 6.65804 6.60218 6.5 7 6.5H24C24.1326 6.5 24.2598 6.44732 24.3536 6.35355C24.4473 6.25979 24.5 6.13261 24.5 6C24.5 5.86739 24.4473 5.74021 24.3536 5.64645C24.2598 5.55268 24.1326 5.5 24 5.5H7C6.33718 5.50073 5.70172 5.76435 5.23304 6.23304C4.76435 6.70172 4.50073 7.33718 4.5 8V24C4.50073 24.6628 4.76435 25.2983 5.23304 25.767C5.70172 26.2356 6.33718 26.4993 7 26.5H27C27.3977 26.4996 27.779 26.3414 28.0602 26.0602C28.3414 25.779 28.4996 25.3977 28.5 25V11C28.4996 10.6023 28.3414 10.221 28.0602 9.93981C27.779 9.6586 27.3977 9.50043 27 9.5ZM27.5 25C27.4999 25.1326 27.4471 25.2597 27.3534 25.3534C27.2597 25.4471 27.1326 25.4999 27 25.5H7C6.60231 25.4996 6.22103 25.3414 5.93982 25.0602C5.6586 24.779 5.50043 24.3977 5.5 24V9.99875C5.93214 10.3246 6.45878 10.5006 7 10.5H27C27.1326 10.5001 27.2597 10.5529 27.3534 10.6466C27.4471 10.7403 27.4999 10.8674 27.5 11V25ZM23.5 18C23.5 18.1978 23.4414 18.3911 23.3315 18.5556C23.2216 18.72 23.0654 18.8482 22.8827 18.9239C22.7 18.9996 22.4989 19.0194 22.3049 18.9808C22.1109 18.9422 21.9327 18.847 21.7929 18.7071C21.653 18.5673 21.5578 18.3891 21.5192 18.1951C21.4806 18.0011 21.5004 17.8 21.5761 17.6173C21.6518 17.4346 21.78 17.2784 21.9444 17.1685C22.1089 17.0586 22.3022 17 22.5 17C22.7652 17 23.0196 17.1054 23.2071 17.2929C23.3946 17.4804 23.5 17.7348 23.5 18Z" fill="white"/>
</svg>

	</symbol>
	<symbol id="aside_wallet" xmlns="http://www.w3.org/2000/svg">
<svg width="32" height="32" viewBox="4 0 32 32" fill="" xmlns="http://www.w3.org/2000/svg">
<path d="M27 9.5H7C6.60218 9.5 6.22064 9.34196 5.93934 9.06066C5.65804 8.77936 5.5 8.39782 5.5 8C5.5 7.60218 5.65804 7.22064 5.93934 6.93934C6.22064 6.65804 6.60218 6.5 7 6.5H24C24.1326 6.5 24.2598 6.44732 24.3536 6.35355C24.4473 6.25979 24.5 6.13261 24.5 6C24.5 5.86739 24.4473 5.74021 24.3536 5.64645C24.2598 5.55268 24.1326 5.5 24 5.5H7C6.33718 5.50073 5.70172 5.76435 5.23304 6.23304C4.76435 6.70172 4.50073 7.33718 4.5 8V24C4.50073 24.6628 4.76435 25.2983 5.23304 25.767C5.70172 26.2356 6.33718 26.4993 7 26.5H27C27.3977 26.4996 27.779 26.3414 28.0602 26.0602C28.3414 25.779 28.4996 25.3977 28.5 25V11C28.4996 10.6023 28.3414 10.221 28.0602 9.93981C27.779 9.6586 27.3977 9.50043 27 9.5ZM27.5 25C27.4999 25.1326 27.4471 25.2597 27.3534 25.3534C27.2597 25.4471 27.1326 25.4999 27 25.5H7C6.60231 25.4996 6.22103 25.3414 5.93982 25.0602C5.6586 24.779 5.50043 24.3977 5.5 24V9.99875C5.93214 10.3246 6.45878 10.5006 7 10.5H27C27.1326 10.5001 27.2597 10.5529 27.3534 10.6466C27.4471 10.7403 27.4999 10.8674 27.5 11V25ZM23.5 18C23.5 18.1978 23.4414 18.3911 23.3315 18.5556C23.2216 18.72 23.0654 18.8482 22.8827 18.9239C22.7 18.9996 22.4989 19.0194 22.3049 18.9808C22.1109 18.9422 21.9327 18.847 21.7929 18.7071C21.653 18.5673 21.5578 18.3891 21.5192 18.1951C21.4806 18.0011 21.5004 17.8 21.5761 17.6173C21.6518 17.4346 21.78 17.2784 21.9444 17.1685C22.1089 17.0586 22.3022 17 22.5 17C22.7652 17 23.0196 17.1054 23.2071 17.2929C23.3946 17.4804 23.5 17.7348 23.5 18Z" fill=""/>
</svg>


	</symbol>	
	<symbol id="student" xmlns="http://www.w3.org/2000/svg">
<svg width="30" height="30" viewBox="0 0 30 30" fill="" xmlns="http://www.w3.org/2000/svg">
<path d="M25.7787 29.1893H4.22327C4.11575 29.1893 4.01264 29.1466 3.93661 29.0706C3.86058 28.9945 3.81787 28.8914 3.81787 28.7839V25.252C3.78788 23.8995 4.22052 22.5774 5.04419 21.5042C5.86787 20.4311 7.03323 19.6713 8.34746 19.3505L11.1144 18.6415L11.8117 17.1058C11.8561 17.0078 11.9377 16.9316 12.0384 16.8937C12.1391 16.8559 12.2507 16.8596 12.3486 16.9041C12.4466 16.9486 12.5228 17.0301 12.5607 17.1308C12.5985 17.2315 12.5948 17.3431 12.5503 17.4411L11.7723 19.1539C11.7472 19.2091 11.71 19.258 11.6635 19.297C11.617 19.3359 11.5623 19.3639 11.5035 19.3789L8.54773 20.1362C7.40808 20.4124 6.39749 21.0708 5.68437 22.0017C4.97124 22.9326 4.59865 24.0797 4.62868 25.252V28.3785H25.3733V25.252C25.4034 24.0799 25.0309 22.9328 24.318 22.002C23.605 21.0712 22.5945 20.4128 21.455 20.1366L18.4984 19.3785C18.4396 19.3635 18.385 19.3355 18.3384 19.2965C18.2919 19.2576 18.2547 19.2087 18.2296 19.1535L17.4516 17.4407C17.4072 17.3427 17.4035 17.2311 17.4413 17.1304C17.4791 17.0297 17.5554 16.9482 17.6533 16.9037C17.7513 16.8592 17.8629 16.8555 17.9636 16.8933C18.0643 16.9312 18.1458 17.0074 18.1903 17.1054L18.8876 18.6411L21.6553 19.3505C22.9695 19.6713 24.1347 20.4311 24.9583 21.5043C25.7818 22.5774 26.2143 23.8996 26.1841 25.252V28.7839C26.1841 28.8914 26.1414 28.9945 26.0653 29.0706C25.9893 29.1466 25.8862 29.1893 25.7787 29.1893Z" fill=""/>
<path d="M14.9991 18.8703C14.6654 18.8707 14.3338 18.8159 14.018 18.7081C12.5675 18.2072 11.3024 17.2791 10.3892 16.0458C9.64511 15.0476 9.24533 13.8347 9.25004 12.5897V10.2667C9.25004 10.1592 9.29275 10.0561 9.36878 9.98007C9.44481 9.90404 9.54793 9.86133 9.65545 9.86133H20.3427C20.4503 9.86133 20.5534 9.90404 20.6294 9.98007C20.7054 10.0561 20.7481 10.1592 20.7481 10.2667V12.5889C20.7529 13.8339 20.3531 15.0468 19.609 16.045C18.6957 17.2783 17.4307 18.2064 15.9802 18.7073C15.6644 18.8154 15.3329 18.8705 14.9991 18.8703ZM10.0609 10.6721V12.5889C10.0554 13.657 10.3968 14.6979 11.0338 15.5553C11.8502 16.6598 12.9819 17.4913 14.2799 17.9403C14.745 18.0996 15.2499 18.0996 15.715 17.9403C17.0131 17.4913 18.1447 16.6598 18.9611 15.5553C19.5981 14.6979 19.9396 13.657 19.9341 12.5889V10.6721H10.0609Z" fill=""/>
<path d="M15 21.2838C14.667 21.2836 14.3362 21.2288 14.0209 21.1216C12.9161 20.7414 11.9151 20.109 11.0971 19.2746C11.0287 19.1968 10.9926 19.0957 10.9964 18.9921C11.0001 18.8886 11.0434 18.7904 11.1173 18.7177C11.1912 18.645 11.2901 18.6034 11.3937 18.6015C11.4974 18.5995 11.5978 18.6372 11.6744 18.707C12.4042 19.4518 13.2974 20.0165 14.2832 20.3562C14.7476 20.5133 15.2507 20.5133 15.7151 20.3562C16.7011 20.0167 17.5944 19.4522 18.3243 18.7074C18.3607 18.666 18.4052 18.6325 18.455 18.6089C18.5048 18.5853 18.5589 18.5721 18.614 18.5701C18.6691 18.5681 18.724 18.5774 18.7754 18.5973C18.8268 18.6173 18.8736 18.6475 18.9129 18.6861C18.9522 18.7248 18.9832 18.771 19.004 18.8221C19.0249 18.8731 19.035 18.9279 19.034 18.983C19.0329 19.0381 19.0207 19.0924 18.9979 19.1426C18.9751 19.1928 18.9424 19.2379 18.9016 19.275C18.084 20.1089 17.0836 20.7411 15.9794 21.1216C15.6641 21.229 15.3332 21.2838 15 21.2838Z" fill=""/>
<path d="M20.8472 10.6724H9.14759C9.04007 10.6724 8.93696 10.6297 8.86093 10.5537C8.7849 10.4777 8.74219 10.3746 8.74219 10.267V5.65514C8.74223 5.58829 8.7588 5.5225 8.79043 5.46361C8.82205 5.40472 8.86775 5.35456 8.92344 5.3176C8.97914 5.28064 9.04312 5.25803 9.10967 5.25178C9.17622 5.24552 9.24328 5.25582 9.30489 5.28176L15 7.68135L20.6903 5.28662C20.7519 5.26076 20.819 5.25053 20.8855 5.25685C20.952 5.26317 21.016 5.28583 21.0716 5.32282C21.1273 5.35982 21.1729 5.41 21.2045 5.46889C21.2361 5.52779 21.2526 5.59358 21.2526 5.66041V10.267C21.2526 10.3746 21.2099 10.4777 21.1339 10.5537C21.0578 10.6297 20.9547 10.6724 20.8472 10.6724ZM9.553 9.86163H20.4418V6.27095L15.1573 8.495C15.1075 8.51597 15.0541 8.52676 15 8.52676C14.946 8.52676 14.8925 8.51597 14.8427 8.495L9.553 6.26527V9.86163Z" fill=""/>
<path d="M15.0016 8.52636C14.9476 8.5264 14.8941 8.51565 14.8443 8.49474L6.64297 5.04231C6.56935 5.01139 6.5065 4.95943 6.46231 4.89293C6.41811 4.82643 6.39453 4.74837 6.39453 4.66852C6.39453 4.58868 6.41811 4.51061 6.46231 4.44412C6.5065 4.37762 6.56935 4.32565 6.64297 4.29474L14.8443 0.842307C14.8941 0.821345 14.9476 0.810547 15.0016 0.810547C15.0556 0.810547 15.1091 0.821345 15.1589 0.842307L23.3554 4.29717C23.4289 4.32815 23.4916 4.38011 23.5357 4.44656C23.5798 4.51301 23.6034 4.591 23.6034 4.67075C23.6034 4.75051 23.5798 4.82849 23.5357 4.89494C23.4916 4.96139 23.4289 5.01336 23.3554 5.04433L15.1589 8.49474C15.1091 8.51565 15.0556 8.5264 15.0016 8.52636ZM7.84581 4.66812L15.0016 7.68109L22.1546 4.66893L15.0016 1.65596L7.84581 4.66812Z" fill=""/>
<path d="M23.314 8.84021C23.2263 8.8401 23.141 8.81155 23.0709 8.75885C23.0008 8.70614 22.9497 8.63213 22.9253 8.54791L22.009 5.40967L18.0575 4.93049C18.0038 4.92525 17.9516 4.90932 17.904 4.88363C17.8565 4.85794 17.8146 4.823 17.7807 4.78087C17.7469 4.73875 17.7218 4.69028 17.707 4.63832C17.6922 4.58637 17.6879 4.53197 17.6943 4.47833C17.7008 4.42468 17.718 4.37288 17.7448 4.32595C17.7716 4.27903 17.8075 4.23794 17.8504 4.20509C17.8933 4.17224 17.9423 4.1483 17.9946 4.13468C18.0469 4.12106 18.1014 4.11802 18.1548 4.12576L22.3711 4.63697C22.4498 4.64655 22.524 4.679 22.5844 4.73031C22.6449 4.78161 22.689 4.84952 22.7112 4.92562L23.7028 8.32089C23.7329 8.42411 23.7208 8.53506 23.6691 8.62933C23.6174 8.72361 23.5304 8.79348 23.4272 8.82359C23.3904 8.83436 23.3523 8.83995 23.314 8.84021Z" fill=""/>
<path d="M23.4091 10.9668C23.1181 10.9669 22.8336 10.8807 22.5916 10.7191C22.3497 10.5575 22.161 10.3277 22.0496 10.0589C21.9382 9.7901 21.909 9.49427 21.9657 9.20886C22.0224 8.92344 22.1625 8.66126 22.3683 8.45547C22.574 8.24967 22.8361 8.10951 23.1215 8.05271C23.4069 7.99591 23.7028 8.02502 23.9716 8.13637C24.2405 8.24771 24.4703 8.43628 24.632 8.67822C24.7936 8.92017 24.8799 9.20463 24.8799 9.49563C24.8795 9.88562 24.7244 10.2595 24.4487 10.5353C24.173 10.8111 23.7991 10.9663 23.4091 10.9668ZM23.4091 8.83563C23.2785 8.83555 23.1507 8.87422 23.0421 8.94676C22.9334 9.01929 22.8487 9.12243 22.7987 9.24312C22.7486 9.36381 22.7355 9.49663 22.761 9.62477C22.7865 9.75292 22.8494 9.87063 22.9417 9.96301C23.0341 10.0554 23.1518 10.1183 23.28 10.1438C23.4081 10.1692 23.5409 10.1561 23.6616 10.1061C23.7823 10.0561 23.8855 9.97135 23.958 9.86268C24.0305 9.75402 24.0692 9.62628 24.0691 9.49563C24.0683 9.32104 23.9984 9.15387 23.8747 9.0306C23.7511 8.90734 23.5837 8.83798 23.4091 8.83766V8.83563Z" fill=""/>
<path d="M21.7532 29.1893H8.24916C8.14164 29.1893 8.03852 29.1466 7.96249 29.0705C7.88646 28.9945 7.84375 28.8914 7.84375 28.7839V24.2494C7.84375 24.1419 7.88646 24.0388 7.96249 23.9627C8.03852 23.8867 8.14164 23.844 8.24916 23.844C8.35668 23.844 8.45979 23.8867 8.53582 23.9627C8.61185 24.0388 8.65456 24.1419 8.65456 24.2494V28.3785H21.3478V24.2494C21.3478 24.1419 21.3905 24.0388 21.4666 23.9627C21.5426 23.8867 21.6457 23.844 21.7532 23.844C21.8607 23.844 21.9639 23.8867 22.0399 23.9627C22.1159 24.0388 22.1586 24.1419 22.1586 24.2494V28.7839C22.1586 28.8914 22.1159 28.9945 22.0399 29.0705C21.9639 29.1466 21.8607 29.1893 21.7532 29.1893Z" fill=""/>
</svg>

	</symbol>
	
	<symbol id="help" xmlns="http://www.w3.org/2000/svg">
<svg width="29" height="30" viewBox="0 0 29 30" fill="" xmlns="http://www.w3.org/2000/svg">
<g clip-path="url(#clip0)">
<path d="M14.5 0.119629C6.49196 0.119629 0 6.61159 0 14.6196C0 22.6277 6.49196 29.1196 14.5 29.1196C22.508 29.1196 29 22.6277 29 14.6196C28.991 6.61536 22.5043 0.128597 14.5 0.119629ZM14.5 28.153C7.0258 28.153 0.966667 22.0938 0.966667 14.6196C0.966667 7.14543 7.0258 1.0863 14.5 1.0863C21.9742 1.0863 28.0333 7.14543 28.0333 14.6196C28.0248 22.0903 21.9707 28.1445 14.5 28.153Z" fill=""/>
<path d="M14.4995 9.11963C12.3651 9.12199 10.6352 10.8519 10.6328 12.9863C10.6328 13.2532 10.8492 13.4696 11.1161 13.4696C11.3831 13.4696 11.5995 13.2532 11.5995 12.9863C11.5995 11.3848 12.898 10.0863 14.4995 10.0863C16.101 10.0863 17.3995 11.3848 17.3995 12.9863C17.3995 14.5878 16.101 15.8863 14.4995 15.8863C14.2326 15.8863 14.0161 16.1027 14.0161 16.3696V18.303C14.0161 18.5699 14.2326 18.7863 14.4995 18.7863C14.7664 18.7863 14.9828 18.5699 14.9828 18.303V16.8197C16.998 16.5535 18.4629 14.7726 18.3357 12.7439C18.2083 10.7155 16.5322 9.13167 14.4995 9.11963Z" fill=""/>
<path d="M15 19.8862C15 20.1624 14.7761 20.3862 14.5 20.3862C14.2239 20.3862 14 20.1624 14 19.8862C14 19.6101 14.2239 19.3862 14.5 19.3862C14.7761 19.3862 15 19.6101 15 19.8862Z" fill=""/>
</g>
<defs>
<clipPath id="clip0">
<rect width="29" height="29" fill="#fff" transform="translate(0 0.119629)"/>
</clipPath>
</defs>
</svg>	
	</symbol>
	
	<symbol id="schedule" xmlns="http://www.w3.org/2000/svg">
<svg width="26" height="26" viewBox="0 0 30 30" fill="" xmlns="http://www.w3.org/2000/svg">
<g clip-path="url(#clip0)">
<path d="M26.8898 3.90733H25.0065V2.41475C25.0065 1.98495 24.6549 1.6333 24.2251 1.6333C23.7953 1.6333 23.4436 1.98495 23.4436 2.41475V3.90733H15.7854V2.41475C15.7854 1.98495 15.4337 1.6333 15.0039 1.6333C14.5741 1.6333 14.2225 1.98495 14.2225 2.41475V3.90733H6.48607V2.41475C6.48607 1.98495 6.13441 1.6333 5.70461 1.6333C5.27481 1.6333 4.92316 1.98495 4.92316 2.41475V3.90733H3.118C1.3988 3.90733 0 5.35302 0 7.07222V25.241C0 26.968 1.39099 28.3668 3.118 28.3668H26.882C28.609 28.3668 30 26.968 30 25.2488V7.07222C30.0078 5.35302 28.609 3.90733 26.8898 3.90733ZM28.4449 25.241C28.4449 26.1006 27.7572 26.7961 26.8976 26.8039H26.8898H3.118C2.2584 26.8039 1.56291 26.1084 1.56291 25.2488V25.241V7.07222C1.56291 6.2048 2.2584 5.47024 3.118 5.47024H4.92316V6.60334C4.92316 7.03314 5.27481 7.3848 5.70461 7.3848C6.13441 7.3848 6.48607 7.03314 6.48607 6.60334V5.47024H14.2225V6.60334C14.2225 7.03314 14.5741 7.3848 15.0039 7.3848C15.4337 7.3848 15.7854 7.03314 15.7854 6.60334V5.47024H23.4436V6.60334C23.4436 7.03314 23.7953 7.3848 24.2251 7.3848C24.6549 7.3848 25.0065 7.03314 25.0065 6.60334V5.47024H26.8898C27.7572 5.47024 28.4449 6.21262 28.4449 7.07222V25.241Z" fill=""/>
<path d="M12.9483 10.5499H11.5808C11.151 10.5499 10.7993 10.9016 10.7993 11.3314C10.7993 11.7612 11.151 12.1128 11.5808 12.1128H12.9483C13.3781 12.1128 13.7298 11.7612 13.7298 11.3314C13.7298 10.9016 13.3781 10.5499 12.9483 10.5499Z" fill=""/>
<path d="M18.3878 10.5499H17.0202C16.5904 10.5499 16.2388 10.9016 16.2388 11.3314C16.2388 11.7612 16.5904 12.1128 17.0202 12.1128H18.3878C18.8176 12.1128 19.1692 11.7612 19.1692 11.3314C19.1692 10.9016 18.8254 10.5499 18.3878 10.5499Z" fill=""/>
<path d="M23.8736 10.5499H22.5061C22.0763 10.5499 21.7246 10.9016 21.7246 11.3314C21.7246 11.7612 22.0763 12.1128 22.5061 12.1128H23.8736C24.3034 12.1128 24.6551 11.7612 24.6551 11.3314C24.6551 10.9016 24.3034 10.5499 23.8736 10.5499Z" fill=""/>
<path d="M12.9483 15.9414H11.5808C11.151 15.9414 10.7993 16.2931 10.7993 16.7229C10.7993 17.1527 11.151 17.5043 11.5808 17.5043H12.9483C13.3781 17.5043 13.7298 17.1527 13.7298 16.7229C13.7298 16.2931 13.3781 15.9414 12.9483 15.9414Z" fill=""/>
<path d="M7.47078 15.9414H6.09542C5.66562 15.9414 5.31396 16.2931 5.31396 16.7229C5.31396 17.1527 5.66562 17.5043 6.09542 17.5043H7.46296C7.89276 17.5043 8.24441 17.1527 8.24441 16.7229C8.24441 16.2931 7.90058 15.9414 7.47078 15.9414Z" fill=""/>
<path d="M18.3878 15.9414H17.0202C16.5904 15.9414 16.2388 16.2931 16.2388 16.7229C16.2388 17.1527 16.5904 17.5043 17.0202 17.5043H18.3878C18.8176 17.5043 19.1692 17.1527 19.1692 16.7229C19.1692 16.2931 18.8254 15.9414 18.3878 15.9414Z" fill=""/>
<path d="M23.8736 15.9414H22.5061C22.0763 15.9414 21.7246 16.2931 21.7246 16.7229C21.7246 17.1527 22.0763 17.5043 22.5061 17.5043H23.8736C24.3034 17.5043 24.6551 17.1527 24.6551 16.7229C24.6551 16.2931 24.3034 15.9414 23.8736 15.9414Z" fill=""/>
<path d="M12.9483 21.2552H11.5808C11.151 21.2552 10.7993 21.6069 10.7993 22.0367C10.7993 22.4665 11.151 22.8182 11.5808 22.8182H12.9483C13.3781 22.8182 13.7298 22.4665 13.7298 22.0367C13.7298 21.6069 13.3781 21.2552 12.9483 21.2552Z" fill=""/>
<path d="M7.47078 21.2552H6.09542C5.66562 21.2552 5.31396 21.6069 5.31396 22.0367C5.31396 22.4665 5.66562 22.8182 6.09542 22.8182H7.46296C7.89276 22.8182 8.24441 22.4665 8.24441 22.0367C8.24441 21.6069 7.90058 21.2552 7.47078 21.2552Z" fill=""/>
<path d="M18.3878 21.2552H17.0202C16.5904 21.2552 16.2388 21.6069 16.2388 22.0367C16.2388 22.4665 16.5904 22.8182 17.0202 22.8182H18.3878C18.8176 22.8182 19.1692 22.4665 19.1692 22.0367C19.1692 21.6069 18.8254 21.2552 18.3878 21.2552Z" fill=""/>
</g>
<defs>
<clipPath id="clip0">
<rect width="30" height="30" fill="white"/>
</clipPath>
</defs>
</svg>
	
	</symbol>
	
</svg>