<svg width="22" height="18" viewBox="0 0 22 18" fill="none" xmlns="http://www.w3.org/2000/svg">
<path d="M20.1667 0.75H1.83335C0.822207 0.75 0 1.57221 0 2.58335V15.4167C0 16.4278 0.822207 17.25 1.83335 17.25H20.1667C21.1778 17.25 22 16.4278 22 15.4167V2.58335C22 1.57221 21.1778 0.75 20.1667 0.75ZM1.83335 1.66665H20.1667C20.2342 1.66665 20.2938 1.69127 20.3571 1.7052C18.7699 3.15784 13.5069 7.97257 11.6652 9.63198C11.521 9.76179 11.2888 9.91665 11 9.91665C10.7113 9.91665 10.479 9.76179 10.3345 9.63155C8.49286 7.9724 3.22957 3.15741 1.64261 1.70528C1.70612 1.69136 1.76576 1.66665 1.83335 1.66665ZM0.916652 15.4167V2.58335C0.916652 2.49354 0.943723 2.41207 0.967957 2.33C2.18277 3.44186 5.85505 6.80133 8.23621 8.96666C5.86279 11.0054 2.18956 14.4879 0.965078 15.6556C0.943465 15.5776 0.916652 15.5014 0.916652 15.4167ZM20.1667 16.3333H1.83335C1.76013 16.3333 1.69503 16.3078 1.62667 16.2915C2.89197 15.0853 6.58857 11.5827 8.92027 9.58798C9.22423 9.86371 9.50189 10.1151 9.72078 10.3124C10.0986 10.6534 10.5407 10.8333 11 10.8333C11.4593 10.8333 11.9014 10.6534 12.2788 10.3128C12.4977 10.1155 12.7756 9.86384 13.0797 9.58798C15.4116 11.5825 19.1076 15.0848 20.3733 16.2915C20.305 16.3078 20.24 16.3333 20.1667 16.3333ZM21.0833 15.4167C21.0833 15.5013 21.0565 15.5776 21.035 15.6556C19.81 14.4873 16.1372 11.0052 13.7638 8.9667C16.1451 6.80138 19.8168 3.44221 21.032 2.32992C21.0563 2.41199 21.0833 2.4935 21.0833 2.5833V15.4167Z" fill="#5B5B5B"/>
</svg>
