<svg width="26" height="28" viewBox="0 0 26 28" fill="none" xmlns="http://www.w3.org/2000/svg">
<g clip-path="url(#clip0)">
<path d="M12.9999 13.8616C6.14821 13.8616 0.57373 19.6432 0.57373 26.7494C0.57373 27.0587 0.815789 27.3097 1.11402 27.3097C1.41225 27.3097 1.65431 27.0587 1.65431 26.7494C1.65431 20.2606 6.74365 14.9822 13 14.9822C19.2563 14.9822 24.3457 20.2606 24.3457 26.7494C24.3457 27.0587 24.5877 27.3097 24.886 27.3097C25.1842 27.3097 25.4262 27.0587 25.4262 26.7494C25.4262 19.642 19.8517 13.8616 12.9999 13.8616Z" fill="#2E3D4B"/>
<path d="M12.9991 0.34375C9.72289 0.34375 7.05615 3.10845 7.05615 6.50747C7.05615 9.90649 9.72294 12.6712 12.9991 12.6712C16.2753 12.6712 18.9421 9.90649 18.9421 6.50747C18.9421 3.10845 16.2753 0.34375 12.9991 0.34375ZM12.9991 11.5505C10.3183 11.5505 8.13668 9.28788 8.13668 6.50747C8.13668 3.72706 10.3183 1.46441 12.9991 1.46441C15.6799 1.46441 17.8615 3.72706 17.8615 6.50747C17.8615 9.28788 15.6799 11.5505 12.9991 11.5505Z" fill="#2E3D4B"/>
</g>
<defs>
<clipPath id="clip0">
<rect width="26" height="26.9658" fill="white" transform="translate(0 0.34375)"/>
</clipPath>
</defs>
</svg>
