<svg width="30" height="31" viewBox="0 0 30 31" fill="none" xmlns="http://www.w3.org/2000/svg">
<g clip-path="url(#clip0)">
<path d="M29.7298 12.4779L15.2294 4.98717C15.0856 4.9128 14.9145 4.9128 14.7704 4.98717L0.270027 12.4779C0.104251 12.5637 0 12.7347 0 12.9212C0 13.108 0.104251 13.2789 0.270027 13.3647L6.99971 16.8414V22.4095C6.99971 24.4026 10.4388 25.9051 14.9999 25.9051C19.5611 25.9051 23.0002 24.4026 23.0002 22.4095V16.8414L26.0002 15.2933V18.0089C25.4038 18.2196 25.0036 18.7814 25.0002 19.4132V26.4045C25.0002 26.6803 25.2241 26.9039 25.5002 26.9039H27.5003C27.7764 26.9039 28.0003 26.6803 28.0003 26.4045V19.4132C27.9979 18.7807 27.5975 18.2179 27.0003 18.007V14.7751L29.7298 13.3647C29.8959 13.2789 30.0001 13.108 30.0001 12.9212C30.0001 12.7347 29.8959 12.5637 29.7298 12.4779ZM27.0003 25.9051H26.0002V19.4132C26.0002 19.1374 26.2241 18.9138 26.5003 18.9138C26.7764 18.9138 27.0003 19.1374 27.0003 19.4132V25.9051ZM22.0001 22.4095C22.0001 23.5882 19.0066 24.9064 14.9999 24.9064C10.9935 24.9064 7.99974 23.5882 7.99974 22.4095V17.3583L14.7704 20.854C14.9142 20.9289 15.0856 20.9289 15.2294 20.854L22.0001 17.3583V22.4095ZM26.4888 13.9146L15.0644 12.426C14.7905 12.3904 14.5397 12.5832 14.5041 12.8568C14.4684 13.1304 14.6615 13.3811 14.9355 13.4167L24.9319 14.719L22.2721 16.0933L14.9999 19.8496L7.72922 16.0933H7.72629L1.58818 12.9212L14.9999 5.99277L28.4114 12.9212L26.4888 13.9146Z" fill="#3A9BF4"/>
</g>
<defs>
<clipPath id="clip0">
<rect width="30" height="29.9621" fill="white" transform="translate(0 0.874756)"/>
</clipPath>
</defs>
</svg>
