<svg width="34" height="35" viewBox="0 0 34 35" fill="none" xmlns="http://www.w3.org/2000/svg">
<g clip-path="url(#clip0)">
<path d="M25.6963 25.524L21.9825 23.9356L21.6318 23.41C21.3011 22.9147 20.7276 22.6629 20.1596 22.7256V21.0108C21.9309 19.9925 23.167 18.1459 23.334 16.0043H23.6539C24.6624 16.0043 25.4828 15.185 25.4828 14.1778C25.4828 13.4685 25.0756 12.8528 24.4828 12.5504L24.9427 10.1006C25.2336 8.55117 24.8223 6.96679 23.8143 5.75369C23.127 4.92652 22.2186 4.34023 21.2098 4.05067C21.0387 2.15345 19.2166 0.655029 16.9999 0.655029C14.7832 0.655029 12.9611 2.15345 12.79 4.05073C11.7812 4.3403 10.8728 4.92665 10.1855 5.75376C9.17742 6.96686 8.7661 8.55123 9.05703 10.1007L9.51696 12.5505C8.92415 12.8529 8.51701 13.4686 8.51701 14.1778C8.51701 15.185 9.3374 16.0044 10.3458 16.0044H10.6657C10.8328 18.146 12.0689 19.9926 13.8402 21.0109V22.7257C13.2722 22.6629 12.6986 22.9147 12.368 23.4101L12.0172 23.9356L8.30345 25.5241C7.13968 26.0219 6.3877 27.1605 6.3877 28.4249V34.1147C6.3877 34.3894 6.61069 34.6121 6.88574 34.6121C7.1608 34.6121 7.38379 34.3894 7.38379 34.1147V28.4249C7.38379 27.5591 7.8987 26.7795 8.69558 26.4386L11.9898 25.0295L13.6773 26.7149C13.9708 27.0081 14.3696 27.1721 14.7826 27.1721C14.8112 27.1721 14.84 27.1713 14.8687 27.1697C15.312 27.1452 15.7252 26.9325 16.0025 26.5863L16.9999 25.3412L17.9972 26.5863C18.2746 26.9325 18.6878 27.1451 19.1311 27.1696C19.1599 27.1712 19.1886 27.172 19.2172 27.172C19.6301 27.172 20.0289 27.008 20.3225 26.7149L22.01 25.0295L25.3042 26.4386C26.1011 26.7794 26.616 27.5591 26.616 28.4249V34.1146C26.616 34.3894 26.839 34.6121 27.114 34.6121C27.3891 34.6121 27.6121 34.3894 27.6121 34.1146V28.4249C27.6121 27.1605 26.8601 26.0219 25.6963 25.524ZM23.6539 15.0096H21.8524C22.1268 14.6243 22.2888 14.1539 22.2888 13.6462C22.2888 13.5021 22.2751 13.3613 22.2502 13.2243C22.4364 13.3028 22.641 13.3461 22.8554 13.3461H23.6539C24.1131 13.3461 24.4866 13.7192 24.4866 14.1778C24.4867 14.6364 24.1131 15.0096 23.6539 15.0096ZM18.5626 13.6462C18.5626 12.8945 19.175 12.2829 19.9277 12.2829C20.6803 12.2829 21.2927 12.8945 21.2927 13.6462C21.2927 14.3979 20.6803 15.0096 19.9277 15.0096C19.175 15.0096 18.5626 14.3979 18.5626 13.6462ZM17.8479 12.5308C17.5828 12.4136 17.2942 12.3512 16.9999 12.3512C16.7063 12.3512 16.4174 12.4137 16.1519 12.5309C15.7529 11.7916 14.9704 11.288 14.0721 11.288C13.5637 11.288 13.0928 11.4498 12.707 11.7238V10.9879C12.707 10.6443 12.8714 10.3161 13.1466 10.1099L14.4169 9.15835C15.7849 9.73197 18.0556 10.4932 20.7616 10.6566C21.0594 10.6745 21.2928 10.9211 21.2928 11.2179V11.7238C20.907 11.4498 20.4361 11.288 19.9277 11.288C19.0294 11.288 18.2469 11.7916 17.8479 12.5308ZM14.0721 15.0096C13.3194 15.0096 12.707 14.3979 12.707 13.6462C12.707 12.8945 13.3194 12.2829 14.0721 12.2829C14.8248 12.2829 15.4372 12.8945 15.4372 13.6462C15.4372 14.3979 14.8248 15.0096 14.0721 15.0096ZM10.952 6.38906C11.7702 5.40444 12.9742 4.83977 14.2554 4.83977C14.5304 4.83977 14.7534 4.61706 14.7534 4.34235C14.7534 4.06764 14.5304 3.84493 14.2554 3.84493C14.1107 3.84493 13.9668 3.8509 13.8241 3.86244C14.0963 2.6061 15.4163 1.64986 16.9999 1.64986C18.5835 1.64986 19.9034 2.6061 20.1757 3.86244C20.0329 3.8509 19.889 3.84493 19.7444 3.84493H16.4677C16.1926 3.84493 15.9697 4.06764 15.9697 4.34235C15.9697 4.61706 16.1926 4.83977 16.4677 4.83977H19.7444C21.0256 4.83977 22.2296 5.4045 23.0478 6.38906C23.866 7.37368 24.1998 8.65967 23.9636 9.91727L23.5067 12.3513H22.8554C22.5429 12.3513 22.2888 12.0974 22.2888 11.7854V11.2179C22.2888 10.396 21.6444 9.71327 20.8217 9.66352C16.7088 9.41515 13.5686 7.659 13.5207 7.63194C13.282 7.49565 12.9777 7.57855 12.8412 7.81704C12.7047 8.05561 12.7877 8.35943 13.0265 8.49572C13.0508 8.50958 13.1751 8.57955 13.3869 8.68633L12.5489 9.31401C12.0242 9.7071 11.711 10.3328 11.711 10.9879V11.7854C11.711 12.0974 11.4568 12.3512 11.1444 12.3512H10.4931L10.0361 9.91721C9.79998 8.65967 10.1338 7.37368 10.952 6.38906ZM9.51311 14.1778C9.51311 13.7192 9.88664 13.3461 10.3458 13.3461H11.1443C11.3588 13.3461 11.5633 13.3027 11.7495 13.2243C11.7246 13.3613 11.7109 13.5021 11.7109 13.6462C11.7109 14.1539 11.8729 14.6243 12.1473 15.0096H10.3458C9.88671 15.0096 9.51311 14.6364 9.51311 14.1778ZM11.6653 16.0044H14.0721C15.3741 16.0044 16.4333 14.9465 16.4333 13.6462C16.4333 13.5993 16.4315 13.5528 16.4288 13.5065C16.5999 13.4017 16.7944 13.3461 16.9999 13.3461C17.2026 13.3461 17.3999 13.4027 17.571 13.5066C17.5683 13.5529 17.5665 13.5993 17.5665 13.6462C17.5665 14.9465 18.6258 16.0044 19.9277 16.0044H22.3345C22.0826 18.7226 19.7862 20.8577 16.9999 20.8577C14.2137 20.8577 11.9173 18.7225 11.6653 16.0044ZM16.9999 21.8525C17.7592 21.8525 18.4878 21.7186 19.1635 21.4735V23.0777L16.9999 24.0038L14.8363 23.0777V21.4735C15.5119 21.7186 16.2405 21.8525 16.9999 21.8525ZM15.2248 25.9648C15.1227 26.0922 14.9767 26.1673 14.8137 26.1763C14.6504 26.1854 14.4972 26.1268 14.3817 26.0114L12.8499 24.4816L13.1968 23.9619C13.3483 23.7349 13.6405 23.6482 13.8914 23.7556L16.2021 24.7447L15.2248 25.9648ZM19.6181 26.0114C19.5026 26.1268 19.349 26.1853 19.1861 26.1763C19.023 26.1673 18.8771 26.0922 18.775 25.9648L17.7976 24.7447L20.1083 23.7556C20.3594 23.6481 20.6514 23.7349 20.8029 23.9618L21.1498 24.4815L19.6181 26.0114Z" fill="#2E3D4B"/>
</g>
<defs>
<clipPath id="clip0">
<rect width="34" height="33.957" fill="white" transform="translate(0 0.655029)"/>
</clipPath>
</defs>
</svg>
